<svg width="487" height="273" viewBox="0 0 487 273" fill="none" xmlns="http://www.w3.org/2000/svg">
<line x1="140.5" y1="0.341797" x2="140.5" y2="300.342" stroke="black" stroke-opacity="0.1"/>
<line x1="343.5" y1="0.341797" x2="343.5" y2="300.342" stroke="black" stroke-opacity="0.1"/>
<ellipse cx="244" cy="346.342" rx="243" ry="242" stroke="url(#paint0_linear_488_5900)" stroke-opacity="0.1"/>
<line x1="151.107" y1="20.293" x2="331.755" y2="20.293" stroke="black" stroke-opacity="0.1"/>
<path d="M140.883 20.4829L152.244 24.2012L152.244 17.3843L140.883 20.4829Z" fill="black" fill-opacity="0.1"/>
<path d="M341.982 20.4829L329.485 24.2012L329.485 17.3843L341.982 20.4829Z" fill="black" fill-opacity="0.1"/>
<line x1="381.248" y1="363.91" x2="381.248" y2="117.366" stroke="black" stroke-opacity="0.1"/>
<path d="M380.301 104.869L384.02 117.367L377.203 117.367L380.301 104.869Z" fill="black" fill-opacity="0.1"/>
<line x1="237" y1="104.842" x2="403" y2="104.842" stroke="black" stroke-opacity="0.1"/>
<path d="M242 374.335L241.999 374.336L241.848 374.331C195.057 372.801 167.298 356.369 153.113 334.524C138.904 312.645 138.166 285.114 145.881 261.124C152.775 239.687 154.981 234.124 156.981 229.081L156.985 229.07C159.638 222.38 161.94 216.569 174.01 176.983C178.004 163.885 180.768 153.146 183.03 144.357L183.031 144.354C185.47 134.878 187.31 127.734 189.472 122.298C191.625 116.886 194.053 113.284 197.598 110.818C201.162 108.339 205.976 106.923 213.075 106.143C220.174 105.363 229.433 105.228 241.816 105.221L242 105.221H242.001L242.184 105.22C242.185 105.22 242.185 105.22 242.185 105.22C254.568 105.228 263.826 105.363 270.925 106.143C278.024 106.923 282.838 108.338 286.402 110.818C289.947 113.284 292.375 116.886 294.528 122.298C296.69 127.734 298.53 134.878 300.969 144.354L300.97 144.357C303.232 153.146 305.996 163.885 309.99 176.983C322.06 216.569 324.362 222.38 327.015 229.07L327.019 229.081C329.019 234.124 331.225 239.687 338.119 261.124C345.834 285.114 345.096 312.645 330.887 334.524C316.702 356.369 288.943 372.801 242.152 374.331L242.001 374.336L242 374.335ZM284.999 97.8551C277.229 98.18 270.867 97.0597 268.315 96.5172C268.104 93.8967 267.805 87.3825 269.107 79.6425C270.503 71.3456 273.725 61.7161 280.792 53.946C287.927 46.0999 299.239 42.6333 309.568 41.2191C319.592 39.8468 328.495 40.4325 331.289 40.6782C331.282 40.8343 331.274 41.0065 331.265 41.1943C331.213 42.2123 331.117 43.6859 330.942 45.499C330.591 49.127 329.922 54.1049 328.652 59.5073C326.1 70.3675 321.174 82.703 311.759 89.4104C303.213 95.4992 293.334 97.5067 284.999 97.8551Z" fill="#B3F353" fill-opacity="0.8" stroke="#A1DB4B" stroke-width="2"/>
<ellipse cx="220.5" cy="290.342" rx="80.5" ry="80" stroke="black" stroke-opacity="0.1"/>
<ellipse cx="262.5" cy="290.342" rx="80.5" ry="80" stroke="black" stroke-opacity="0.1"/>
<defs>
<linearGradient id="paint0_linear_488_5900" x1="244" y1="104.342" x2="244" y2="588.342" gradientUnits="userSpaceOnUse">
<stop/>
<stop offset="1" stop-opacity="0"/>
</linearGradient>
</defs>
</svg>
