<svg width="434" height="260" viewBox="0 0 434 260" fill="none" xmlns="http://www.w3.org/2000/svg">
<g clip-path="url(#clip0_488_5948)">
<path d="M15.998 40.3418C19.3118 40.3418 21.998 37.6555 21.998 34.3418C21.998 31.0281 19.3118 28.3418 15.998 28.3418C12.6843 28.3418 9.99805 31.0281 9.99805 34.3418C9.99805 37.6555 12.6843 40.3418 15.998 40.3418Z" fill="#AFF349" fill-opacity="0.8"/>
<path d="M25.4675 52.3418C26.7042 52.3418 27.6531 51.2198 27.2121 50.0643C25.489 45.5491 21.1175 42.3418 15.9969 42.3418C10.8763 42.3418 6.50481 45.5491 4.78168 50.0643C4.34073 51.2198 5.28955 52.3418 6.52629 52.3418H25.4675Z" fill="#AFF349" fill-opacity="0.8"/>
<path d="M21.498 34.3418C21.498 37.3794 19.0356 39.8418 15.998 39.8418C12.9605 39.8418 10.498 37.3794 10.498 34.3418C10.498 31.3042 12.9605 28.8418 15.998 28.8418C19.0356 28.8418 21.498 31.3042 21.498 34.3418ZM26.745 50.2426C27.0336 50.999 26.4343 51.8418 25.4675 51.8418H6.52629C5.55948 51.8418 4.96015 50.999 5.24882 50.2426C6.90046 45.9146 11.0904 42.8418 15.9969 42.8418C20.9033 42.8418 25.0933 45.9146 26.745 50.2426Z" stroke="black" stroke-opacity="0.1"/>
<path d="M51.998 40.3418C55.3118 40.3418 57.998 37.6555 57.998 34.3418C57.998 31.0281 55.3118 28.3418 51.998 28.3418C48.6843 28.3418 45.998 31.0281 45.998 34.3418C45.998 37.6555 48.6843 40.3418 51.998 40.3418Z" fill="#AFF349" fill-opacity="0.8"/>
<path d="M61.4675 52.3418C62.7042 52.3418 63.6531 51.2198 63.2121 50.0643C61.489 45.5491 57.1175 42.3418 51.9969 42.3418C46.8763 42.3418 42.5048 45.5491 40.7817 50.0643C40.3407 51.2198 41.2895 52.3418 42.5263 52.3418H61.4675Z" fill="#AFF349" fill-opacity="0.8"/>
<path d="M57.498 34.3418C57.498 37.3794 55.0356 39.8418 51.998 39.8418C48.9605 39.8418 46.498 37.3794 46.498 34.3418C46.498 31.3042 48.9605 28.8418 51.998 28.8418C55.0356 28.8418 57.498 31.3042 57.498 34.3418ZM62.745 50.2426C63.0336 50.999 62.4343 51.8418 61.4675 51.8418H42.5263C41.5595 51.8418 40.9602 50.999 41.2488 50.2426C42.9005 45.9146 47.0904 42.8418 51.9969 42.8418C56.9033 42.8418 61.0933 45.9146 62.745 50.2426Z" stroke="black" stroke-opacity="0.1"/>
<path d="M87.998 40.3418C91.3118 40.3418 93.998 37.6555 93.998 34.3418C93.998 31.0281 91.3118 28.3418 87.998 28.3418C84.6843 28.3418 81.998 31.0281 81.998 34.3418C81.998 37.6555 84.6843 40.3418 87.998 40.3418Z" fill="#AFF349" fill-opacity="0.8"/>
<path d="M97.4675 52.3418C98.7042 52.3418 99.6531 51.2198 99.2121 50.0643C97.489 45.5491 93.1175 42.3418 87.9969 42.3418C82.8763 42.3418 78.5048 45.5491 76.7817 50.0643C76.3407 51.2198 77.2895 52.3418 78.5263 52.3418H97.4675Z" fill="#AFF349" fill-opacity="0.8"/>
<path d="M93.498 34.3418C93.498 37.3794 91.0356 39.8418 87.998 39.8418C84.9605 39.8418 82.498 37.3794 82.498 34.3418C82.498 31.3042 84.9605 28.8418 87.998 28.8418C91.0356 28.8418 93.498 31.3042 93.498 34.3418ZM98.745 50.2426C99.0336 50.999 98.4343 51.8418 97.4675 51.8418H78.5263C77.5595 51.8418 76.9602 50.999 77.2488 50.2426C78.9005 45.9146 83.0904 42.8418 87.9969 42.8418C92.9033 42.8418 97.0933 45.9146 98.745 50.2426Z" stroke="black" stroke-opacity="0.1"/>
<path d="M123.998 40.3418C127.312 40.3418 129.998 37.6555 129.998 34.3418C129.998 31.0281 127.312 28.3418 123.998 28.3418C120.684 28.3418 117.998 31.0281 117.998 34.3418C117.998 37.6555 120.684 40.3418 123.998 40.3418Z" fill="#AFF349" fill-opacity="0.8"/>
<path d="M133.467 52.3418C134.704 52.3418 135.653 51.2198 135.212 50.0643C133.489 45.5491 129.117 42.3418 123.997 42.3418C118.876 42.3418 114.505 45.5491 112.782 50.0643C112.341 51.2198 113.29 52.3418 114.526 52.3418H133.467Z" fill="#AFF349" fill-opacity="0.8"/>
<path d="M129.498 34.3418C129.498 37.3794 127.036 39.8418 123.998 39.8418C120.96 39.8418 118.498 37.3794 118.498 34.3418C118.498 31.3042 120.96 28.8418 123.998 28.8418C127.036 28.8418 129.498 31.3042 129.498 34.3418ZM134.745 50.2426C135.034 50.999 134.434 51.8418 133.467 51.8418H114.526C113.559 51.8418 112.96 50.999 113.249 50.2426C114.9 45.9146 119.09 42.8418 123.997 42.8418C128.903 42.8418 133.093 45.9146 134.745 50.2426Z" stroke="black" stroke-opacity="0.1"/>
<path d="M159.998 40.3418C163.312 40.3418 165.998 37.6555 165.998 34.3418C165.998 31.0281 163.312 28.3418 159.998 28.3418C156.684 28.3418 153.998 31.0281 153.998 34.3418C153.998 37.6555 156.684 40.3418 159.998 40.3418Z" fill="black" fill-opacity="0.05"/>
<path d="M169.467 52.3418C170.704 52.3418 171.653 51.2198 171.212 50.0643C169.489 45.5491 165.117 42.3418 159.997 42.3418C154.876 42.3418 150.505 45.5491 148.782 50.0643C148.341 51.2198 149.29 52.3418 150.526 52.3418H169.467Z" fill="black" fill-opacity="0.05"/>
<path d="M195.998 40.3418C199.312 40.3418 201.998 37.6555 201.998 34.3418C201.998 31.0281 199.312 28.3418 195.998 28.3418C192.684 28.3418 189.998 31.0281 189.998 34.3418C189.998 37.6555 192.684 40.3418 195.998 40.3418Z" fill="#AFF349" fill-opacity="0.8"/>
<path d="M205.467 52.3418C206.704 52.3418 207.653 51.2198 207.212 50.0643C205.489 45.5491 201.117 42.3418 195.997 42.3418C190.876 42.3418 186.505 45.5491 184.782 50.0643C184.341 51.2198 185.29 52.3418 186.526 52.3418H205.467Z" fill="#AFF349" fill-opacity="0.8"/>
<path d="M201.498 34.3418C201.498 37.3794 199.036 39.8418 195.998 39.8418C192.96 39.8418 190.498 37.3794 190.498 34.3418C190.498 31.3042 192.96 28.8418 195.998 28.8418C199.036 28.8418 201.498 31.3042 201.498 34.3418ZM206.745 50.2426C207.034 50.999 206.434 51.8418 205.467 51.8418H186.526C185.559 51.8418 184.96 50.999 185.249 50.2426C186.9 45.9146 191.09 42.8418 195.997 42.8418C200.903 42.8418 205.093 45.9146 206.745 50.2426Z" stroke="black" stroke-opacity="0.1"/>
<path d="M231.998 40.3418C235.312 40.3418 237.998 37.6555 237.998 34.3418C237.998 31.0281 235.312 28.3418 231.998 28.3418C228.684 28.3418 225.998 31.0281 225.998 34.3418C225.998 37.6555 228.684 40.3418 231.998 40.3418Z" fill="#AFF349" fill-opacity="0.8"/>
<path d="M241.467 52.3418C242.704 52.3418 243.653 51.2198 243.212 50.0643C241.489 45.5491 237.117 42.3418 231.997 42.3418C226.876 42.3418 222.505 45.5491 220.782 50.0643C220.341 51.2198 221.29 52.3418 222.526 52.3418H241.467Z" fill="#AFF349" fill-opacity="0.8"/>
<path d="M237.498 34.3418C237.498 37.3794 235.036 39.8418 231.998 39.8418C228.96 39.8418 226.498 37.3794 226.498 34.3418C226.498 31.3042 228.96 28.8418 231.998 28.8418C235.036 28.8418 237.498 31.3042 237.498 34.3418ZM242.745 50.2426C243.034 50.999 242.434 51.8418 241.467 51.8418H222.526C221.559 51.8418 220.96 50.999 221.249 50.2426C222.9 45.9146 227.09 42.8418 231.997 42.8418C236.903 42.8418 241.093 45.9146 242.745 50.2426Z" stroke="black" stroke-opacity="0.1"/>
<path d="M267.998 40.3418C271.312 40.3418 273.998 37.6555 273.998 34.3418C273.998 31.0281 271.312 28.3418 267.998 28.3418C264.684 28.3418 261.998 31.0281 261.998 34.3418C261.998 37.6555 264.684 40.3418 267.998 40.3418Z" fill="#AFF349" fill-opacity="0.8"/>
<path d="M277.467 52.3418C278.704 52.3418 279.653 51.2198 279.212 50.0643C277.489 45.5491 273.117 42.3418 267.997 42.3418C262.876 42.3418 258.505 45.5491 256.782 50.0643C256.341 51.2198 257.29 52.3418 258.526 52.3418H277.467Z" fill="#AFF349" fill-opacity="0.8"/>
<path d="M273.498 34.3418C273.498 37.3794 271.036 39.8418 267.998 39.8418C264.96 39.8418 262.498 37.3794 262.498 34.3418C262.498 31.3042 264.96 28.8418 267.998 28.8418C271.036 28.8418 273.498 31.3042 273.498 34.3418ZM278.745 50.2426C279.034 50.999 278.434 51.8418 277.467 51.8418H258.526C257.559 51.8418 256.96 50.999 257.249 50.2426C258.9 45.9146 263.09 42.8418 267.997 42.8418C272.903 42.8418 277.093 45.9146 278.745 50.2426Z" stroke="black" stroke-opacity="0.1"/>
<path d="M303.998 40.3418C307.312 40.3418 309.998 37.6555 309.998 34.3418C309.998 31.0281 307.312 28.3418 303.998 28.3418C300.684 28.3418 297.998 31.0281 297.998 34.3418C297.998 37.6555 300.684 40.3418 303.998 40.3418Z" fill="#AFF349" fill-opacity="0.8"/>
<path d="M313.467 52.3418C314.704 52.3418 315.653 51.2198 315.212 50.0643C313.489 45.5491 309.117 42.3418 303.997 42.3418C298.876 42.3418 294.505 45.5491 292.782 50.0643C292.341 51.2198 293.29 52.3418 294.526 52.3418H313.467Z" fill="#AFF349" fill-opacity="0.8"/>
<path d="M309.498 34.3418C309.498 37.3794 307.036 39.8418 303.998 39.8418C300.96 39.8418 298.498 37.3794 298.498 34.3418C298.498 31.3042 300.96 28.8418 303.998 28.8418C307.036 28.8418 309.498 31.3042 309.498 34.3418ZM314.745 50.2426C315.034 50.999 314.434 51.8418 313.467 51.8418H294.526C293.559 51.8418 292.96 50.999 293.249 50.2426C294.9 45.9146 299.09 42.8418 303.997 42.8418C308.903 42.8418 313.093 45.9146 314.745 50.2426Z" stroke="black" stroke-opacity="0.1"/>
<path d="M339.998 40.3418C343.312 40.3418 345.998 37.6555 345.998 34.3418C345.998 31.0281 343.312 28.3418 339.998 28.3418C336.684 28.3418 333.998 31.0281 333.998 34.3418C333.998 37.6555 336.684 40.3418 339.998 40.3418Z" fill="#AFF349" fill-opacity="0.8"/>
<path d="M349.467 52.3418C350.704 52.3418 351.653 51.2198 351.212 50.0643C349.489 45.5491 345.117 42.3418 339.997 42.3418C334.876 42.3418 330.505 45.5491 328.782 50.0643C328.341 51.2198 329.29 52.3418 330.526 52.3418H349.467Z" fill="#AFF349" fill-opacity="0.8"/>
<path d="M345.498 34.3418C345.498 37.3794 343.036 39.8418 339.998 39.8418C336.96 39.8418 334.498 37.3794 334.498 34.3418C334.498 31.3042 336.96 28.8418 339.998 28.8418C343.036 28.8418 345.498 31.3042 345.498 34.3418ZM350.745 50.2426C351.034 50.999 350.434 51.8418 349.467 51.8418H330.526C329.559 51.8418 328.96 50.999 329.249 50.2426C330.9 45.9146 335.09 42.8418 339.997 42.8418C344.903 42.8418 349.093 45.9146 350.745 50.2426Z" stroke="black" stroke-opacity="0.1"/>
<path d="M375.998 40.3418C379.312 40.3418 381.998 37.6555 381.998 34.3418C381.998 31.0281 379.312 28.3418 375.998 28.3418C372.684 28.3418 369.998 31.0281 369.998 34.3418C369.998 37.6555 372.684 40.3418 375.998 40.3418Z" fill="#AFF349" fill-opacity="0.8"/>
<path d="M385.467 52.3418C386.704 52.3418 387.653 51.2198 387.212 50.0643C385.489 45.5491 381.117 42.3418 375.997 42.3418C370.876 42.3418 366.505 45.5491 364.782 50.0643C364.341 51.2198 365.29 52.3418 366.526 52.3418H385.467Z" fill="#AFF349" fill-opacity="0.8"/>
<path d="M381.498 34.3418C381.498 37.3794 379.036 39.8418 375.998 39.8418C372.96 39.8418 370.498 37.3794 370.498 34.3418C370.498 31.3042 372.96 28.8418 375.998 28.8418C379.036 28.8418 381.498 31.3042 381.498 34.3418ZM386.745 50.2426C387.034 50.999 386.434 51.8418 385.467 51.8418H366.526C365.559 51.8418 364.96 50.999 365.249 50.2426C366.9 45.9146 371.09 42.8418 375.997 42.8418C380.903 42.8418 385.093 45.9146 386.745 50.2426Z" stroke="black" stroke-opacity="0.1"/>
<path d="M411.998 40.3418C415.312 40.3418 417.998 37.6555 417.998 34.3418C417.998 31.0281 415.312 28.3418 411.998 28.3418C408.684 28.3418 405.998 31.0281 405.998 34.3418C405.998 37.6555 408.684 40.3418 411.998 40.3418Z" fill="black" fill-opacity="0.05"/>
<path d="M421.467 52.3418C422.704 52.3418 423.653 51.2198 423.212 50.0643C421.489 45.5491 417.117 42.3418 411.997 42.3418C406.876 42.3418 402.505 45.5491 400.782 50.0643C400.341 51.2198 401.29 52.3418 402.526 52.3418H421.467Z" fill="black" fill-opacity="0.05"/>
<path d="M15.998 76.3418C19.3118 76.3418 21.998 73.6555 21.998 70.3418C21.998 67.0281 19.3118 64.3418 15.998 64.3418C12.6843 64.3418 9.99805 67.0281 9.99805 70.3418C9.99805 73.6555 12.6843 76.3418 15.998 76.3418Z" fill="#AFF349" fill-opacity="0.8"/>
<path d="M25.4675 88.3418C26.7042 88.3418 27.6531 87.2198 27.2121 86.0643C25.489 81.5491 21.1175 78.3418 15.9969 78.3418C10.8763 78.3418 6.50481 81.5491 4.78168 86.0643C4.34073 87.2198 5.28955 88.3418 6.52629 88.3418H25.4675Z" fill="#AFF349" fill-opacity="0.8"/>
<path d="M21.498 70.3418C21.498 73.3794 19.0356 75.8418 15.998 75.8418C12.9605 75.8418 10.498 73.3794 10.498 70.3418C10.498 67.3042 12.9605 64.8418 15.998 64.8418C19.0356 64.8418 21.498 67.3042 21.498 70.3418ZM26.745 86.2426C27.0336 86.999 26.4343 87.8418 25.4675 87.8418H6.52629C5.55948 87.8418 4.96015 86.999 5.24882 86.2426C6.90046 81.9146 11.0904 78.8418 15.9969 78.8418C20.9033 78.8418 25.0933 81.9146 26.745 86.2426Z" stroke="black" stroke-opacity="0.1"/>
<path d="M51.998 76.3418C55.3118 76.3418 57.998 73.6555 57.998 70.3418C57.998 67.0281 55.3118 64.3418 51.998 64.3418C48.6843 64.3418 45.998 67.0281 45.998 70.3418C45.998 73.6555 48.6843 76.3418 51.998 76.3418Z" fill="#AFF349" fill-opacity="0.8"/>
<path d="M61.4675 88.3418C62.7042 88.3418 63.6531 87.2198 63.2121 86.0643C61.489 81.5491 57.1175 78.3418 51.9969 78.3418C46.8763 78.3418 42.5048 81.5491 40.7817 86.0643C40.3407 87.2198 41.2895 88.3418 42.5263 88.3418H61.4675Z" fill="#AFF349" fill-opacity="0.8"/>
<path d="M57.498 70.3418C57.498 73.3794 55.0356 75.8418 51.998 75.8418C48.9605 75.8418 46.498 73.3794 46.498 70.3418C46.498 67.3042 48.9605 64.8418 51.998 64.8418C55.0356 64.8418 57.498 67.3042 57.498 70.3418ZM62.745 86.2426C63.0336 86.999 62.4343 87.8418 61.4675 87.8418H42.5263C41.5595 87.8418 40.9602 86.999 41.2488 86.2426C42.9005 81.9146 47.0904 78.8418 51.9969 78.8418C56.9033 78.8418 61.0933 81.9146 62.745 86.2426Z" stroke="black" stroke-opacity="0.1"/>
<path d="M87.998 76.3418C91.3118 76.3418 93.998 73.6555 93.998 70.3418C93.998 67.0281 91.3118 64.3418 87.998 64.3418C84.6843 64.3418 81.998 67.0281 81.998 70.3418C81.998 73.6555 84.6843 76.3418 87.998 76.3418Z" fill="#AFF349" fill-opacity="0.8"/>
<path d="M97.4675 88.3418C98.7042 88.3418 99.6531 87.2198 99.2121 86.0643C97.489 81.5491 93.1175 78.3418 87.9969 78.3418C82.8763 78.3418 78.5048 81.5491 76.7817 86.0643C76.3407 87.2198 77.2895 88.3418 78.5263 88.3418H97.4675Z" fill="#AFF349" fill-opacity="0.8"/>
<path d="M93.498 70.3418C93.498 73.3794 91.0356 75.8418 87.998 75.8418C84.9605 75.8418 82.498 73.3794 82.498 70.3418C82.498 67.3042 84.9605 64.8418 87.998 64.8418C91.0356 64.8418 93.498 67.3042 93.498 70.3418ZM98.745 86.2426C99.0336 86.999 98.4343 87.8418 97.4675 87.8418H78.5263C77.5595 87.8418 76.9602 86.999 77.2488 86.2426C78.9005 81.9146 83.0904 78.8418 87.9969 78.8418C92.9033 78.8418 97.0933 81.9146 98.745 86.2426Z" stroke="black" stroke-opacity="0.1"/>
<path d="M123.998 76.3418C127.312 76.3418 129.998 73.6555 129.998 70.3418C129.998 67.0281 127.312 64.3418 123.998 64.3418C120.684 64.3418 117.998 67.0281 117.998 70.3418C117.998 73.6555 120.684 76.3418 123.998 76.3418Z" fill="black" fill-opacity="0.05"/>
<path d="M133.467 88.3418C134.704 88.3418 135.653 87.2198 135.212 86.0643C133.489 81.5491 129.117 78.3418 123.997 78.3418C118.876 78.3418 114.505 81.5491 112.782 86.0643C112.341 87.2198 113.29 88.3418 114.526 88.3418H133.467Z" fill="black" fill-opacity="0.05"/>
<path d="M159.998 76.3418C163.312 76.3418 165.998 73.6555 165.998 70.3418C165.998 67.0281 163.312 64.3418 159.998 64.3418C156.684 64.3418 153.998 67.0281 153.998 70.3418C153.998 73.6555 156.684 76.3418 159.998 76.3418Z" fill="#AFF349" fill-opacity="0.8"/>
<path d="M169.467 88.3418C170.704 88.3418 171.653 87.2198 171.212 86.0643C169.489 81.5491 165.117 78.3418 159.997 78.3418C154.876 78.3418 150.505 81.5491 148.782 86.0643C148.341 87.2198 149.29 88.3418 150.526 88.3418H169.467Z" fill="#AFF349" fill-opacity="0.8"/>
<path d="M165.498 70.3418C165.498 73.3794 163.036 75.8418 159.998 75.8418C156.96 75.8418 154.498 73.3794 154.498 70.3418C154.498 67.3042 156.96 64.8418 159.998 64.8418C163.036 64.8418 165.498 67.3042 165.498 70.3418ZM170.745 86.2426C171.034 86.999 170.434 87.8418 169.467 87.8418H150.526C149.559 87.8418 148.96 86.999 149.249 86.2426C150.9 81.9146 155.09 78.8418 159.997 78.8418C164.903 78.8418 169.093 81.9146 170.745 86.2426Z" stroke="black" stroke-opacity="0.1"/>
<path d="M195.998 76.3418C199.312 76.3418 201.998 73.6555 201.998 70.3418C201.998 67.0281 199.312 64.3418 195.998 64.3418C192.684 64.3418 189.998 67.0281 189.998 70.3418C189.998 73.6555 192.684 76.3418 195.998 76.3418Z" fill="#AFF349" fill-opacity="0.8"/>
<path d="M205.467 88.3418C206.704 88.3418 207.653 87.2198 207.212 86.0643C205.489 81.5491 201.117 78.3418 195.997 78.3418C190.876 78.3418 186.505 81.5491 184.782 86.0643C184.341 87.2198 185.29 88.3418 186.526 88.3418H205.467Z" fill="#AFF349" fill-opacity="0.8"/>
<path d="M201.498 70.3418C201.498 73.3794 199.036 75.8418 195.998 75.8418C192.96 75.8418 190.498 73.3794 190.498 70.3418C190.498 67.3042 192.96 64.8418 195.998 64.8418C199.036 64.8418 201.498 67.3042 201.498 70.3418ZM206.745 86.2426C207.034 86.999 206.434 87.8418 205.467 87.8418H186.526C185.559 87.8418 184.96 86.999 185.249 86.2426C186.9 81.9146 191.09 78.8418 195.997 78.8418C200.903 78.8418 205.093 81.9146 206.745 86.2426Z" stroke="black" stroke-opacity="0.1"/>
<path d="M231.998 76.3418C235.312 76.3418 237.998 73.6555 237.998 70.3418C237.998 67.0281 235.312 64.3418 231.998 64.3418C228.684 64.3418 225.998 67.0281 225.998 70.3418C225.998 73.6555 228.684 76.3418 231.998 76.3418Z" fill="black" fill-opacity="0.05"/>
<path d="M241.467 88.3418C242.704 88.3418 243.653 87.2198 243.212 86.0643C241.489 81.5491 237.117 78.3418 231.997 78.3418C226.876 78.3418 222.505 81.5491 220.782 86.0643C220.341 87.2198 221.29 88.3418 222.526 88.3418H241.467Z" fill="black" fill-opacity="0.05"/>
<path d="M267.998 76.3418C271.312 76.3418 273.998 73.6555 273.998 70.3418C273.998 67.0281 271.312 64.3418 267.998 64.3418C264.684 64.3418 261.998 67.0281 261.998 70.3418C261.998 73.6555 264.684 76.3418 267.998 76.3418Z" fill="#AFF349" fill-opacity="0.8"/>
<path d="M277.467 88.3418C278.704 88.3418 279.653 87.2198 279.212 86.0643C277.489 81.5491 273.117 78.3418 267.997 78.3418C262.876 78.3418 258.505 81.5491 256.782 86.0643C256.341 87.2198 257.29 88.3418 258.526 88.3418H277.467Z" fill="#AFF349" fill-opacity="0.8"/>
<path d="M273.498 70.3418C273.498 73.3794 271.036 75.8418 267.998 75.8418C264.96 75.8418 262.498 73.3794 262.498 70.3418C262.498 67.3042 264.96 64.8418 267.998 64.8418C271.036 64.8418 273.498 67.3042 273.498 70.3418ZM278.745 86.2426C279.034 86.999 278.434 87.8418 277.467 87.8418H258.526C257.559 87.8418 256.96 86.999 257.249 86.2426C258.9 81.9146 263.09 78.8418 267.997 78.8418C272.903 78.8418 277.093 81.9146 278.745 86.2426Z" stroke="black" stroke-opacity="0.1"/>
<path d="M303.998 76.3418C307.312 76.3418 309.998 73.6555 309.998 70.3418C309.998 67.0281 307.312 64.3418 303.998 64.3418C300.684 64.3418 297.998 67.0281 297.998 70.3418C297.998 73.6555 300.684 76.3418 303.998 76.3418Z" fill="#AFF349" fill-opacity="0.8"/>
<path d="M313.467 88.3418C314.704 88.3418 315.653 87.2198 315.212 86.0643C313.489 81.5491 309.117 78.3418 303.997 78.3418C298.876 78.3418 294.505 81.5491 292.782 86.0643C292.341 87.2198 293.29 88.3418 294.526 88.3418H313.467Z" fill="#AFF349" fill-opacity="0.8"/>
<path d="M309.498 70.3418C309.498 73.3794 307.036 75.8418 303.998 75.8418C300.96 75.8418 298.498 73.3794 298.498 70.3418C298.498 67.3042 300.96 64.8418 303.998 64.8418C307.036 64.8418 309.498 67.3042 309.498 70.3418ZM314.745 86.2426C315.034 86.999 314.434 87.8418 313.467 87.8418H294.526C293.559 87.8418 292.96 86.999 293.249 86.2426C294.9 81.9146 299.09 78.8418 303.997 78.8418C308.903 78.8418 313.093 81.9146 314.745 86.2426Z" stroke="black" stroke-opacity="0.1"/>
<path d="M339.998 76.3418C343.312 76.3418 345.998 73.6555 345.998 70.3418C345.998 67.0281 343.312 64.3418 339.998 64.3418C336.684 64.3418 333.998 67.0281 333.998 70.3418C333.998 73.6555 336.684 76.3418 339.998 76.3418Z" fill="#AFF349" fill-opacity="0.8"/>
<path d="M349.467 88.3418C350.704 88.3418 351.653 87.2198 351.212 86.0643C349.489 81.5491 345.117 78.3418 339.997 78.3418C334.876 78.3418 330.505 81.5491 328.782 86.0643C328.341 87.2198 329.29 88.3418 330.526 88.3418H349.467Z" fill="#AFF349" fill-opacity="0.8"/>
<path d="M345.498 70.3418C345.498 73.3794 343.036 75.8418 339.998 75.8418C336.96 75.8418 334.498 73.3794 334.498 70.3418C334.498 67.3042 336.96 64.8418 339.998 64.8418C343.036 64.8418 345.498 67.3042 345.498 70.3418ZM350.745 86.2426C351.034 86.999 350.434 87.8418 349.467 87.8418H330.526C329.559 87.8418 328.96 86.999 329.249 86.2426C330.9 81.9146 335.09 78.8418 339.997 78.8418C344.903 78.8418 349.093 81.9146 350.745 86.2426Z" stroke="black" stroke-opacity="0.1"/>
<path d="M375.998 76.3418C379.312 76.3418 381.998 73.6555 381.998 70.3418C381.998 67.0281 379.312 64.3418 375.998 64.3418C372.684 64.3418 369.998 67.0281 369.998 70.3418C369.998 73.6555 372.684 76.3418 375.998 76.3418Z" fill="black" fill-opacity="0.05"/>
<path d="M385.467 88.3418C386.704 88.3418 387.653 87.2198 387.212 86.0643C385.489 81.5491 381.117 78.3418 375.997 78.3418C370.876 78.3418 366.505 81.5491 364.782 86.0643C364.341 87.2198 365.29 88.3418 366.526 88.3418H385.467Z" fill="black" fill-opacity="0.05"/>
<path d="M411.998 76.3418C415.312 76.3418 417.998 73.6555 417.998 70.3418C417.998 67.0281 415.312 64.3418 411.998 64.3418C408.684 64.3418 405.998 67.0281 405.998 70.3418C405.998 73.6555 408.684 76.3418 411.998 76.3418Z" fill="#AFF349" fill-opacity="0.8"/>
<path d="M421.467 88.3418C422.704 88.3418 423.653 87.2198 423.212 86.0643C421.489 81.5491 417.117 78.3418 411.997 78.3418C406.876 78.3418 402.505 81.5491 400.782 86.0643C400.341 87.2198 401.29 88.3418 402.526 88.3418H421.467Z" fill="#AFF349" fill-opacity="0.8"/>
<path d="M417.498 70.3418C417.498 73.3794 415.036 75.8418 411.998 75.8418C408.96 75.8418 406.498 73.3794 406.498 70.3418C406.498 67.3042 408.96 64.8418 411.998 64.8418C415.036 64.8418 417.498 67.3042 417.498 70.3418ZM422.745 86.2426C423.034 86.999 422.434 87.8418 421.467 87.8418H402.526C401.559 87.8418 400.96 86.999 401.249 86.2426C402.9 81.9146 407.09 78.8418 411.997 78.8418C416.903 78.8418 421.093 81.9146 422.745 86.2426Z" stroke="black" stroke-opacity="0.1"/>
<path d="M15.998 112.342C19.3118 112.342 21.998 109.656 21.998 106.342C21.998 103.028 19.3118 100.342 15.998 100.342C12.6843 100.342 9.99805 103.028 9.99805 106.342C9.99805 109.656 12.6843 112.342 15.998 112.342Z" fill="black" fill-opacity="0.05"/>
<path d="M25.4675 124.342C26.7042 124.342 27.6531 123.22 27.2121 122.064C25.489 117.549 21.1175 114.342 15.9969 114.342C10.8763 114.342 6.50481 117.549 4.78168 122.064C4.34073 123.22 5.28955 124.342 6.52629 124.342H25.4675Z" fill="black" fill-opacity="0.05"/>
<path d="M51.998 112.342C55.3118 112.342 57.998 109.656 57.998 106.342C57.998 103.028 55.3118 100.342 51.998 100.342C48.6843 100.342 45.998 103.028 45.998 106.342C45.998 109.656 48.6843 112.342 51.998 112.342Z" fill="#AFF349" fill-opacity="0.8"/>
<path d="M61.4675 124.342C62.7042 124.342 63.6531 123.22 63.2121 122.064C61.489 117.549 57.1175 114.342 51.9969 114.342C46.8763 114.342 42.5048 117.549 40.7817 122.064C40.3407 123.22 41.2895 124.342 42.5263 124.342H61.4675Z" fill="#AFF349" fill-opacity="0.8"/>
<path d="M57.498 106.342C57.498 109.379 55.0356 111.842 51.998 111.842C48.9605 111.842 46.498 109.379 46.498 106.342C46.498 103.304 48.9605 100.842 51.998 100.842C55.0356 100.842 57.498 103.304 57.498 106.342ZM62.745 122.243C63.0336 122.999 62.4343 123.842 61.4675 123.842H42.5263C41.5595 123.842 40.9602 122.999 41.2488 122.243C42.9005 117.915 47.0904 114.842 51.9969 114.842C56.9033 114.842 61.0933 117.915 62.745 122.243Z" stroke="black" stroke-opacity="0.1"/>
<path d="M87.998 112.342C91.3118 112.342 93.998 109.656 93.998 106.342C93.998 103.028 91.3118 100.342 87.998 100.342C84.6843 100.342 81.998 103.028 81.998 106.342C81.998 109.656 84.6843 112.342 87.998 112.342Z" fill="#AFF349" fill-opacity="0.8"/>
<path d="M97.4675 124.342C98.7042 124.342 99.6531 123.22 99.2121 122.064C97.489 117.549 93.1175 114.342 87.9969 114.342C82.8763 114.342 78.5048 117.549 76.7817 122.064C76.3407 123.22 77.2895 124.342 78.5263 124.342H97.4675Z" fill="#AFF349" fill-opacity="0.8"/>
<path d="M93.498 106.342C93.498 109.379 91.0356 111.842 87.998 111.842C84.9605 111.842 82.498 109.379 82.498 106.342C82.498 103.304 84.9605 100.842 87.998 100.842C91.0356 100.842 93.498 103.304 93.498 106.342ZM98.745 122.243C99.0336 122.999 98.4343 123.842 97.4675 123.842H78.5263C77.5595 123.842 76.9602 122.999 77.2488 122.243C78.9005 117.915 83.0904 114.842 87.9969 114.842C92.9033 114.842 97.0933 117.915 98.745 122.243Z" stroke="black" stroke-opacity="0.1"/>
<path d="M123.998 112.342C127.312 112.342 129.998 109.656 129.998 106.342C129.998 103.028 127.312 100.342 123.998 100.342C120.684 100.342 117.998 103.028 117.998 106.342C117.998 109.656 120.684 112.342 123.998 112.342Z" fill="black" fill-opacity="0.05"/>
<path d="M133.467 124.342C134.704 124.342 135.653 123.22 135.212 122.064C133.489 117.549 129.117 114.342 123.997 114.342C118.876 114.342 114.505 117.549 112.782 122.064C112.341 123.22 113.29 124.342 114.526 124.342H133.467Z" fill="black" fill-opacity="0.05"/>
<path d="M159.998 112.342C163.312 112.342 165.998 109.656 165.998 106.342C165.998 103.028 163.312 100.342 159.998 100.342C156.684 100.342 153.998 103.028 153.998 106.342C153.998 109.656 156.684 112.342 159.998 112.342Z" fill="black" fill-opacity="0.05"/>
<path d="M169.467 124.342C170.704 124.342 171.653 123.22 171.212 122.064C169.489 117.549 165.117 114.342 159.997 114.342C154.876 114.342 150.505 117.549 148.782 122.064C148.341 123.22 149.29 124.342 150.526 124.342H169.467Z" fill="black" fill-opacity="0.05"/>
<path d="M195.998 112.342C199.312 112.342 201.998 109.656 201.998 106.342C201.998 103.028 199.312 100.342 195.998 100.342C192.684 100.342 189.998 103.028 189.998 106.342C189.998 109.656 192.684 112.342 195.998 112.342Z" fill="#AFF349" fill-opacity="0.8"/>
<path d="M205.467 124.342C206.704 124.342 207.653 123.22 207.212 122.064C205.489 117.549 201.117 114.342 195.997 114.342C190.876 114.342 186.505 117.549 184.782 122.064C184.341 123.22 185.29 124.342 186.526 124.342H205.467Z" fill="#AFF349" fill-opacity="0.8"/>
<path d="M201.498 106.342C201.498 109.379 199.036 111.842 195.998 111.842C192.96 111.842 190.498 109.379 190.498 106.342C190.498 103.304 192.96 100.842 195.998 100.842C199.036 100.842 201.498 103.304 201.498 106.342ZM206.745 122.243C207.034 122.999 206.434 123.842 205.467 123.842H186.526C185.559 123.842 184.96 122.999 185.249 122.243C186.9 117.915 191.09 114.842 195.997 114.842C200.903 114.842 205.093 117.915 206.745 122.243Z" stroke="black" stroke-opacity="0.1"/>
<path d="M231.998 112.342C235.312 112.342 237.998 109.656 237.998 106.342C237.998 103.028 235.312 100.342 231.998 100.342C228.684 100.342 225.998 103.028 225.998 106.342C225.998 109.656 228.684 112.342 231.998 112.342Z" fill="black" fill-opacity="0.05"/>
<path d="M241.467 124.342C242.704 124.342 243.653 123.22 243.212 122.064C241.489 117.549 237.117 114.342 231.997 114.342C226.876 114.342 222.505 117.549 220.782 122.064C220.341 123.22 221.29 124.342 222.526 124.342H241.467Z" fill="black" fill-opacity="0.05"/>
<path d="M267.998 112.342C271.312 112.342 273.998 109.656 273.998 106.342C273.998 103.028 271.312 100.342 267.998 100.342C264.684 100.342 261.998 103.028 261.998 106.342C261.998 109.656 264.684 112.342 267.998 112.342Z" fill="black" fill-opacity="0.05"/>
<path d="M277.467 124.342C278.704 124.342 279.653 123.22 279.212 122.064C277.489 117.549 273.117 114.342 267.997 114.342C262.876 114.342 258.505 117.549 256.782 122.064C256.341 123.22 257.29 124.342 258.526 124.342H277.467Z" fill="black" fill-opacity="0.05"/>
<path d="M303.998 112.342C307.312 112.342 309.998 109.656 309.998 106.342C309.998 103.028 307.312 100.342 303.998 100.342C300.684 100.342 297.998 103.028 297.998 106.342C297.998 109.656 300.684 112.342 303.998 112.342Z" fill="#AFF349" fill-opacity="0.8"/>
<path d="M313.467 124.342C314.704 124.342 315.653 123.22 315.212 122.064C313.489 117.549 309.117 114.342 303.997 114.342C298.876 114.342 294.505 117.549 292.782 122.064C292.341 123.22 293.29 124.342 294.526 124.342H313.467Z" fill="#AFF349" fill-opacity="0.8"/>
<path d="M309.498 106.342C309.498 109.379 307.036 111.842 303.998 111.842C300.96 111.842 298.498 109.379 298.498 106.342C298.498 103.304 300.96 100.842 303.998 100.842C307.036 100.842 309.498 103.304 309.498 106.342ZM314.745 122.243C315.034 122.999 314.434 123.842 313.467 123.842H294.526C293.559 123.842 292.96 122.999 293.249 122.243C294.9 117.915 299.09 114.842 303.997 114.842C308.903 114.842 313.093 117.915 314.745 122.243Z" stroke="black" stroke-opacity="0.1"/>
<path d="M339.998 112.342C343.312 112.342 345.998 109.656 345.998 106.342C345.998 103.028 343.312 100.342 339.998 100.342C336.684 100.342 333.998 103.028 333.998 106.342C333.998 109.656 336.684 112.342 339.998 112.342Z" fill="black" fill-opacity="0.05"/>
<path d="M349.467 124.342C350.704 124.342 351.653 123.22 351.212 122.064C349.489 117.549 345.117 114.342 339.997 114.342C334.876 114.342 330.505 117.549 328.782 122.064C328.341 123.22 329.29 124.342 330.526 124.342H349.467Z" fill="black" fill-opacity="0.05"/>
<path d="M375.998 112.342C379.312 112.342 381.998 109.656 381.998 106.342C381.998 103.028 379.312 100.342 375.998 100.342C372.684 100.342 369.998 103.028 369.998 106.342C369.998 109.656 372.684 112.342 375.998 112.342Z" fill="#AFF349" fill-opacity="0.8"/>
<path d="M385.467 124.342C386.704 124.342 387.653 123.22 387.212 122.064C385.489 117.549 381.117 114.342 375.997 114.342C370.876 114.342 366.505 117.549 364.782 122.064C364.341 123.22 365.29 124.342 366.526 124.342H385.467Z" fill="#AFF349" fill-opacity="0.8"/>
<path d="M381.498 106.342C381.498 109.379 379.036 111.842 375.998 111.842C372.96 111.842 370.498 109.379 370.498 106.342C370.498 103.304 372.96 100.842 375.998 100.842C379.036 100.842 381.498 103.304 381.498 106.342ZM386.745 122.243C387.034 122.999 386.434 123.842 385.467 123.842H366.526C365.559 123.842 364.96 122.999 365.249 122.243C366.9 117.915 371.09 114.842 375.997 114.842C380.903 114.842 385.093 117.915 386.745 122.243Z" stroke="black" stroke-opacity="0.1"/>
<path d="M411.998 112.342C415.312 112.342 417.998 109.656 417.998 106.342C417.998 103.028 415.312 100.342 411.998 100.342C408.684 100.342 405.998 103.028 405.998 106.342C405.998 109.656 408.684 112.342 411.998 112.342Z" fill="black" fill-opacity="0.05"/>
<path d="M421.467 124.342C422.704 124.342 423.653 123.22 423.212 122.064C421.489 117.549 417.117 114.342 411.997 114.342C406.876 114.342 402.505 117.549 400.782 122.064C400.341 123.22 401.29 124.342 402.526 124.342H421.467Z" fill="black" fill-opacity="0.05"/>
<path d="M15.998 148.342C19.3118 148.342 21.998 145.656 21.998 142.342C21.998 139.028 19.3118 136.342 15.998 136.342C12.6843 136.342 9.99805 139.028 9.99805 142.342C9.99805 145.656 12.6843 148.342 15.998 148.342Z" fill="#AFF349" fill-opacity="0.8"/>
<path d="M25.4675 160.342C26.7042 160.342 27.6531 159.22 27.2121 158.064C25.489 153.549 21.1175 150.342 15.9969 150.342C10.8763 150.342 6.50481 153.549 4.78168 158.064C4.34073 159.22 5.28955 160.342 6.52629 160.342H25.4675Z" fill="#AFF349" fill-opacity="0.8"/>
<path d="M21.498 142.342C21.498 145.379 19.0356 147.842 15.998 147.842C12.9605 147.842 10.498 145.379 10.498 142.342C10.498 139.304 12.9605 136.842 15.998 136.842C19.0356 136.842 21.498 139.304 21.498 142.342ZM26.745 158.243C27.0336 158.999 26.4343 159.842 25.4675 159.842H6.52629C5.55948 159.842 4.96015 158.999 5.24882 158.243C6.90046 153.915 11.0904 150.842 15.9969 150.842C20.9033 150.842 25.0933 153.915 26.745 158.243Z" stroke="black" stroke-opacity="0.1"/>
<path d="M51.998 148.342C55.3118 148.342 57.998 145.656 57.998 142.342C57.998 139.028 55.3118 136.342 51.998 136.342C48.6843 136.342 45.998 139.028 45.998 142.342C45.998 145.656 48.6843 148.342 51.998 148.342Z" fill="black" fill-opacity="0.05"/>
<path d="M61.4675 160.342C62.7042 160.342 63.6531 159.22 63.2121 158.064C61.489 153.549 57.1175 150.342 51.9969 150.342C46.8763 150.342 42.5048 153.549 40.7817 158.064C40.3407 159.22 41.2895 160.342 42.5263 160.342H61.4675Z" fill="black" fill-opacity="0.05"/>
<path d="M87.998 148.342C91.3118 148.342 93.998 145.656 93.998 142.342C93.998 139.028 91.3118 136.342 87.998 136.342C84.6843 136.342 81.998 139.028 81.998 142.342C81.998 145.656 84.6843 148.342 87.998 148.342Z" fill="black" fill-opacity="0.05"/>
<path d="M97.4675 160.342C98.7042 160.342 99.6531 159.22 99.2121 158.064C97.489 153.549 93.1175 150.342 87.9969 150.342C82.8763 150.342 78.5048 153.549 76.7817 158.064C76.3407 159.22 77.2895 160.342 78.5263 160.342H97.4675Z" fill="black" fill-opacity="0.05"/>
<path d="M123.998 148.342C127.312 148.342 129.998 145.656 129.998 142.342C129.998 139.028 127.312 136.342 123.998 136.342C120.684 136.342 117.998 139.028 117.998 142.342C117.998 145.656 120.684 148.342 123.998 148.342Z" fill="#AFF349" fill-opacity="0.8"/>
<path d="M133.467 160.342C134.704 160.342 135.653 159.22 135.212 158.064C133.489 153.549 129.117 150.342 123.997 150.342C118.876 150.342 114.505 153.549 112.782 158.064C112.341 159.22 113.29 160.342 114.526 160.342H133.467Z" fill="#AFF349" fill-opacity="0.8"/>
<path d="M129.498 142.342C129.498 145.379 127.036 147.842 123.998 147.842C120.96 147.842 118.498 145.379 118.498 142.342C118.498 139.304 120.96 136.842 123.998 136.842C127.036 136.842 129.498 139.304 129.498 142.342ZM134.745 158.243C135.034 158.999 134.434 159.842 133.467 159.842H114.526C113.559 159.842 112.96 158.999 113.249 158.243C114.9 153.915 119.09 150.842 123.997 150.842C128.903 150.842 133.093 153.915 134.745 158.243Z" stroke="black" stroke-opacity="0.1"/>
<path d="M159.998 148.342C163.312 148.342 165.998 145.656 165.998 142.342C165.998 139.028 163.312 136.342 159.998 136.342C156.684 136.342 153.998 139.028 153.998 142.342C153.998 145.656 156.684 148.342 159.998 148.342Z" fill="black" fill-opacity="0.05"/>
<path d="M169.467 160.342C170.704 160.342 171.653 159.22 171.212 158.064C169.489 153.549 165.117 150.342 159.997 150.342C154.876 150.342 150.505 153.549 148.782 158.064C148.341 159.22 149.29 160.342 150.526 160.342H169.467Z" fill="black" fill-opacity="0.05"/>
<path d="M195.998 148.342C199.312 148.342 201.998 145.656 201.998 142.342C201.998 139.028 199.312 136.342 195.998 136.342C192.684 136.342 189.998 139.028 189.998 142.342C189.998 145.656 192.684 148.342 195.998 148.342Z" fill="#AFF349" fill-opacity="0.8"/>
<path d="M205.467 160.342C206.704 160.342 207.653 159.22 207.212 158.064C205.489 153.549 201.117 150.342 195.997 150.342C190.876 150.342 186.505 153.549 184.782 158.064C184.341 159.22 185.29 160.342 186.526 160.342H205.467Z" fill="#AFF349" fill-opacity="0.8"/>
<path d="M201.498 142.342C201.498 145.379 199.036 147.842 195.998 147.842C192.96 147.842 190.498 145.379 190.498 142.342C190.498 139.304 192.96 136.842 195.998 136.842C199.036 136.842 201.498 139.304 201.498 142.342ZM206.745 158.243C207.034 158.999 206.434 159.842 205.467 159.842H186.526C185.559 159.842 184.96 158.999 185.249 158.243C186.9 153.915 191.09 150.842 195.997 150.842C200.903 150.842 205.093 153.915 206.745 158.243Z" stroke="black" stroke-opacity="0.1"/>
<path d="M231.998 148.342C235.312 148.342 237.998 145.656 237.998 142.342C237.998 139.028 235.312 136.342 231.998 136.342C228.684 136.342 225.998 139.028 225.998 142.342C225.998 145.656 228.684 148.342 231.998 148.342Z" fill="black" fill-opacity="0.05"/>
<path d="M241.467 160.342C242.704 160.342 243.653 159.22 243.212 158.064C241.489 153.549 237.117 150.342 231.997 150.342C226.876 150.342 222.505 153.549 220.782 158.064C220.341 159.22 221.29 160.342 222.526 160.342H241.467Z" fill="black" fill-opacity="0.05"/>
<path d="M267.998 148.342C271.312 148.342 273.998 145.656 273.998 142.342C273.998 139.028 271.312 136.342 267.998 136.342C264.684 136.342 261.998 139.028 261.998 142.342C261.998 145.656 264.684 148.342 267.998 148.342Z" fill="black" fill-opacity="0.05"/>
<path d="M277.467 160.342C278.704 160.342 279.653 159.22 279.212 158.064C277.489 153.549 273.117 150.342 267.997 150.342C262.876 150.342 258.505 153.549 256.782 158.064C256.341 159.22 257.29 160.342 258.526 160.342H277.467Z" fill="black" fill-opacity="0.05"/>
<path d="M303.998 148.342C307.312 148.342 309.998 145.656 309.998 142.342C309.998 139.028 307.312 136.342 303.998 136.342C300.684 136.342 297.998 139.028 297.998 142.342C297.998 145.656 300.684 148.342 303.998 148.342Z" fill="black" fill-opacity="0.05"/>
<path d="M313.467 160.342C314.704 160.342 315.653 159.22 315.212 158.064C313.489 153.549 309.117 150.342 303.997 150.342C298.876 150.342 294.505 153.549 292.782 158.064C292.341 159.22 293.29 160.342 294.526 160.342H313.467Z" fill="black" fill-opacity="0.05"/>
<path d="M339.998 148.342C343.312 148.342 345.998 145.656 345.998 142.342C345.998 139.028 343.312 136.342 339.998 136.342C336.684 136.342 333.998 139.028 333.998 142.342C333.998 145.656 336.684 148.342 339.998 148.342Z" fill="black" fill-opacity="0.05"/>
<path d="M349.467 160.342C350.704 160.342 351.653 159.22 351.212 158.064C349.489 153.549 345.117 150.342 339.997 150.342C334.876 150.342 330.505 153.549 328.782 158.064C328.341 159.22 329.29 160.342 330.526 160.342H349.467Z" fill="black" fill-opacity="0.05"/>
<path d="M375.998 148.342C379.312 148.342 381.998 145.656 381.998 142.342C381.998 139.028 379.312 136.342 375.998 136.342C372.684 136.342 369.998 139.028 369.998 142.342C369.998 145.656 372.684 148.342 375.998 148.342Z" fill="black" fill-opacity="0.05"/>
<path d="M385.467 160.342C386.704 160.342 387.653 159.22 387.212 158.064C385.489 153.549 381.117 150.342 375.997 150.342C370.876 150.342 366.505 153.549 364.782 158.064C364.341 159.22 365.29 160.342 366.526 160.342H385.467Z" fill="black" fill-opacity="0.05"/>
<path d="M411.998 148.342C415.312 148.342 417.998 145.656 417.998 142.342C417.998 139.028 415.312 136.342 411.998 136.342C408.684 136.342 405.998 139.028 405.998 142.342C405.998 145.656 408.684 148.342 411.998 148.342Z" fill="black" fill-opacity="0.05"/>
<path d="M421.467 160.342C422.704 160.342 423.653 159.22 423.212 158.064C421.489 153.549 417.117 150.342 411.997 150.342C406.876 150.342 402.505 153.549 400.782 158.064C400.341 159.22 401.29 160.342 402.526 160.342H421.467Z" fill="black" fill-opacity="0.05"/>
<path d="M15.998 184.342C19.3118 184.342 21.998 181.656 21.998 178.342C21.998 175.028 19.3118 172.342 15.998 172.342C12.6843 172.342 9.99805 175.028 9.99805 178.342C9.99805 181.656 12.6843 184.342 15.998 184.342Z" fill="black" fill-opacity="0.05"/>
<path d="M25.4675 196.342C26.7042 196.342 27.6531 195.22 27.2121 194.064C25.489 189.549 21.1175 186.342 15.9969 186.342C10.8763 186.342 6.50481 189.549 4.78168 194.064C4.34073 195.22 5.28955 196.342 6.52629 196.342H25.4675Z" fill="black" fill-opacity="0.05"/>
<path d="M51.998 184.342C55.3118 184.342 57.998 181.656 57.998 178.342C57.998 175.028 55.3118 172.342 51.998 172.342C48.6843 172.342 45.998 175.028 45.998 178.342C45.998 181.656 48.6843 184.342 51.998 184.342Z" fill="black" fill-opacity="0.05"/>
<path d="M61.4675 196.342C62.7042 196.342 63.6531 195.22 63.2121 194.064C61.489 189.549 57.1175 186.342 51.9969 186.342C46.8763 186.342 42.5048 189.549 40.7817 194.064C40.3407 195.22 41.2895 196.342 42.5263 196.342H61.4675Z" fill="black" fill-opacity="0.05"/>
<path d="M87.998 184.342C91.3118 184.342 93.998 181.656 93.998 178.342C93.998 175.028 91.3118 172.342 87.998 172.342C84.6843 172.342 81.998 175.028 81.998 178.342C81.998 181.656 84.6843 184.342 87.998 184.342Z" fill="black" fill-opacity="0.05"/>
<path d="M97.4675 196.342C98.7042 196.342 99.6531 195.22 99.2121 194.064C97.489 189.549 93.1175 186.342 87.9969 186.342C82.8763 186.342 78.5048 189.549 76.7817 194.064C76.3407 195.22 77.2895 196.342 78.5263 196.342H97.4675Z" fill="black" fill-opacity="0.05"/>
<path d="M123.998 184.342C127.312 184.342 129.998 181.656 129.998 178.342C129.998 175.028 127.312 172.342 123.998 172.342C120.684 172.342 117.998 175.028 117.998 178.342C117.998 181.656 120.684 184.342 123.998 184.342Z" fill="black" fill-opacity="0.05"/>
<path d="M133.467 196.342C134.704 196.342 135.653 195.22 135.212 194.064C133.489 189.549 129.117 186.342 123.997 186.342C118.876 186.342 114.505 189.549 112.782 194.064C112.341 195.22 113.29 196.342 114.526 196.342H133.467Z" fill="black" fill-opacity="0.05"/>
<path d="M159.998 184.342C163.312 184.342 165.998 181.656 165.998 178.342C165.998 175.028 163.312 172.342 159.998 172.342C156.684 172.342 153.998 175.028 153.998 178.342C153.998 181.656 156.684 184.342 159.998 184.342Z" fill="#AFF349" fill-opacity="0.8"/>
<path d="M169.467 196.342C170.704 196.342 171.653 195.22 171.212 194.064C169.489 189.549 165.117 186.342 159.997 186.342C154.876 186.342 150.505 189.549 148.782 194.064C148.341 195.22 149.29 196.342 150.526 196.342H169.467Z" fill="#AFF349" fill-opacity="0.8"/>
<path d="M165.498 178.342C165.498 181.379 163.036 183.842 159.998 183.842C156.96 183.842 154.498 181.379 154.498 178.342C154.498 175.304 156.96 172.842 159.998 172.842C163.036 172.842 165.498 175.304 165.498 178.342ZM170.745 194.243C171.034 194.999 170.434 195.842 169.467 195.842H150.526C149.559 195.842 148.96 194.999 149.249 194.243C150.9 189.915 155.09 186.842 159.997 186.842C164.903 186.842 169.093 189.915 170.745 194.243Z" stroke="black" stroke-opacity="0.1"/>
<path d="M195.998 184.342C199.312 184.342 201.998 181.656 201.998 178.342C201.998 175.028 199.312 172.342 195.998 172.342C192.684 172.342 189.998 175.028 189.998 178.342C189.998 181.656 192.684 184.342 195.998 184.342Z" fill="black" fill-opacity="0.05"/>
<path d="M205.467 196.342C206.704 196.342 207.653 195.22 207.212 194.064C205.489 189.549 201.117 186.342 195.997 186.342C190.876 186.342 186.505 189.549 184.782 194.064C184.341 195.22 185.29 196.342 186.526 196.342H205.467Z" fill="black" fill-opacity="0.05"/>
<path d="M231.998 184.342C235.312 184.342 237.998 181.656 237.998 178.342C237.998 175.028 235.312 172.342 231.998 172.342C228.684 172.342 225.998 175.028 225.998 178.342C225.998 181.656 228.684 184.342 231.998 184.342Z" fill="black" fill-opacity="0.05"/>
<path d="M241.467 196.342C242.704 196.342 243.653 195.22 243.212 194.064C241.489 189.549 237.117 186.342 231.997 186.342C226.876 186.342 222.505 189.549 220.782 194.064C220.341 195.22 221.29 196.342 222.526 196.342H241.467Z" fill="black" fill-opacity="0.05"/>
<path d="M267.998 184.342C271.312 184.342 273.998 181.656 273.998 178.342C273.998 175.028 271.312 172.342 267.998 172.342C264.684 172.342 261.998 175.028 261.998 178.342C261.998 181.656 264.684 184.342 267.998 184.342Z" fill="#AFF349" fill-opacity="0.8"/>
<path d="M277.467 196.342C278.704 196.342 279.653 195.22 279.212 194.064C277.489 189.549 273.117 186.342 267.997 186.342C262.876 186.342 258.505 189.549 256.782 194.064C256.341 195.22 257.29 196.342 258.526 196.342H277.467Z" fill="#AFF349" fill-opacity="0.8"/>
<path d="M273.498 178.342C273.498 181.379 271.036 183.842 267.998 183.842C264.96 183.842 262.498 181.379 262.498 178.342C262.498 175.304 264.96 172.842 267.998 172.842C271.036 172.842 273.498 175.304 273.498 178.342ZM278.745 194.243C279.034 194.999 278.434 195.842 277.467 195.842H258.526C257.559 195.842 256.96 194.999 257.249 194.243C258.9 189.915 263.09 186.842 267.997 186.842C272.903 186.842 277.093 189.915 278.745 194.243Z" stroke="black" stroke-opacity="0.1"/>
<path d="M303.998 184.342C307.312 184.342 309.998 181.656 309.998 178.342C309.998 175.028 307.312 172.342 303.998 172.342C300.684 172.342 297.998 175.028 297.998 178.342C297.998 181.656 300.684 184.342 303.998 184.342Z" fill="black" fill-opacity="0.05"/>
<path d="M313.467 196.342C314.704 196.342 315.653 195.22 315.212 194.064C313.489 189.549 309.117 186.342 303.997 186.342C298.876 186.342 294.505 189.549 292.782 194.064C292.341 195.22 293.29 196.342 294.526 196.342H313.467Z" fill="black" fill-opacity="0.05"/>
<path d="M339.998 184.342C343.312 184.342 345.998 181.656 345.998 178.342C345.998 175.028 343.312 172.342 339.998 172.342C336.684 172.342 333.998 175.028 333.998 178.342C333.998 181.656 336.684 184.342 339.998 184.342Z" fill="black" fill-opacity="0.05"/>
<path d="M349.467 196.342C350.704 196.342 351.653 195.22 351.212 194.064C349.489 189.549 345.117 186.342 339.997 186.342C334.876 186.342 330.505 189.549 328.782 194.064C328.341 195.22 329.29 196.342 330.526 196.342H349.467Z" fill="black" fill-opacity="0.05"/>
<path d="M375.998 184.342C379.312 184.342 381.998 181.656 381.998 178.342C381.998 175.028 379.312 172.342 375.998 172.342C372.684 172.342 369.998 175.028 369.998 178.342C369.998 181.656 372.684 184.342 375.998 184.342Z" fill="#AFF349" fill-opacity="0.8"/>
<path d="M385.467 196.342C386.704 196.342 387.653 195.22 387.212 194.064C385.489 189.549 381.117 186.342 375.997 186.342C370.876 186.342 366.505 189.549 364.782 194.064C364.341 195.22 365.29 196.342 366.526 196.342H385.467Z" fill="#AFF349" fill-opacity="0.8"/>
<path d="M381.498 178.342C381.498 181.379 379.036 183.842 375.998 183.842C372.96 183.842 370.498 181.379 370.498 178.342C370.498 175.304 372.96 172.842 375.998 172.842C379.036 172.842 381.498 175.304 381.498 178.342ZM386.745 194.243C387.034 194.999 386.434 195.842 385.467 195.842H366.526C365.559 195.842 364.96 194.999 365.249 194.243C366.9 189.915 371.09 186.842 375.997 186.842C380.903 186.842 385.093 189.915 386.745 194.243Z" stroke="black" stroke-opacity="0.1"/>
<path d="M411.998 184.342C415.312 184.342 417.998 181.656 417.998 178.342C417.998 175.028 415.312 172.342 411.998 172.342C408.684 172.342 405.998 175.028 405.998 178.342C405.998 181.656 408.684 184.342 411.998 184.342Z" fill="black" fill-opacity="0.05"/>
<path d="M421.467 196.342C422.704 196.342 423.653 195.22 423.212 194.064C421.489 189.549 417.117 186.342 411.997 186.342C406.876 186.342 402.505 189.549 400.782 194.064C400.341 195.22 401.29 196.342 402.526 196.342H421.467Z" fill="black" fill-opacity="0.05"/>
<path d="M15.998 220.342C19.3118 220.342 21.998 217.656 21.998 214.342C21.998 211.028 19.3118 208.342 15.998 208.342C12.6843 208.342 9.99805 211.028 9.99805 214.342C9.99805 217.656 12.6843 220.342 15.998 220.342Z" fill="black" fill-opacity="0.05"/>
<path d="M25.4675 232.342C26.7042 232.342 27.6531 231.22 27.2121 230.064C25.489 225.549 21.1175 222.342 15.9969 222.342C10.8763 222.342 6.50481 225.549 4.78168 230.064C4.34073 231.22 5.28955 232.342 6.52629 232.342H25.4675Z" fill="black" fill-opacity="0.05"/>
<path d="M51.998 220.342C55.3118 220.342 57.998 217.656 57.998 214.342C57.998 211.028 55.3118 208.342 51.998 208.342C48.6843 208.342 45.998 211.028 45.998 214.342C45.998 217.656 48.6843 220.342 51.998 220.342Z" fill="black" fill-opacity="0.05"/>
<path d="M61.4675 232.342C62.7042 232.342 63.6531 231.22 63.2121 230.064C61.489 225.549 57.1175 222.342 51.9969 222.342C46.8763 222.342 42.5048 225.549 40.7817 230.064C40.3407 231.22 41.2895 232.342 42.5263 232.342H61.4675Z" fill="black" fill-opacity="0.05"/>
<path d="M87.998 220.342C91.3118 220.342 93.998 217.656 93.998 214.342C93.998 211.028 91.3118 208.342 87.998 208.342C84.6843 208.342 81.998 211.028 81.998 214.342C81.998 217.656 84.6843 220.342 87.998 220.342Z" fill="#AFF349" fill-opacity="0.8"/>
<path d="M97.4675 232.342C98.7042 232.342 99.6531 231.22 99.2121 230.064C97.489 225.549 93.1175 222.342 87.9969 222.342C82.8763 222.342 78.5048 225.549 76.7817 230.064C76.3407 231.22 77.2895 232.342 78.5263 232.342H97.4675Z" fill="#AFF349" fill-opacity="0.8"/>
<path d="M93.498 214.342C93.498 217.379 91.0356 219.842 87.998 219.842C84.9605 219.842 82.498 217.379 82.498 214.342C82.498 211.304 84.9605 208.842 87.998 208.842C91.0356 208.842 93.498 211.304 93.498 214.342ZM98.745 230.243C99.0336 230.999 98.4343 231.842 97.4675 231.842H78.5263C77.5595 231.842 76.9602 230.999 77.2488 230.243C78.9005 225.915 83.0904 222.842 87.9969 222.842C92.9033 222.842 97.0933 225.915 98.745 230.243Z" stroke="black" stroke-opacity="0.1"/>
<path d="M123.998 220.342C127.312 220.342 129.998 217.656 129.998 214.342C129.998 211.028 127.312 208.342 123.998 208.342C120.684 208.342 117.998 211.028 117.998 214.342C117.998 217.656 120.684 220.342 123.998 220.342Z" fill="black" fill-opacity="0.05"/>
<path d="M133.467 232.342C134.704 232.342 135.653 231.22 135.212 230.064C133.489 225.549 129.117 222.342 123.997 222.342C118.876 222.342 114.505 225.549 112.782 230.064C112.341 231.22 113.29 232.342 114.526 232.342H133.467Z" fill="black" fill-opacity="0.05"/>
<path d="M159.998 220.342C163.312 220.342 165.998 217.656 165.998 214.342C165.998 211.028 163.312 208.342 159.998 208.342C156.684 208.342 153.998 211.028 153.998 214.342C153.998 217.656 156.684 220.342 159.998 220.342Z" fill="black" fill-opacity="0.05"/>
<path d="M169.467 232.342C170.704 232.342 171.653 231.22 171.212 230.064C169.489 225.549 165.117 222.342 159.997 222.342C154.876 222.342 150.505 225.549 148.782 230.064C148.341 231.22 149.29 232.342 150.526 232.342H169.467Z" fill="black" fill-opacity="0.05"/>
<path d="M195.998 220.342C199.312 220.342 201.998 217.656 201.998 214.342C201.998 211.028 199.312 208.342 195.998 208.342C192.684 208.342 189.998 211.028 189.998 214.342C189.998 217.656 192.684 220.342 195.998 220.342Z" fill="black" fill-opacity="0.05"/>
<path d="M205.467 232.342C206.704 232.342 207.653 231.22 207.212 230.064C205.489 225.549 201.117 222.342 195.997 222.342C190.876 222.342 186.505 225.549 184.782 230.064C184.341 231.22 185.29 232.342 186.526 232.342H205.467Z" fill="black" fill-opacity="0.05"/>
<path d="M231.998 220.342C235.312 220.342 237.998 217.656 237.998 214.342C237.998 211.028 235.312 208.342 231.998 208.342C228.684 208.342 225.998 211.028 225.998 214.342C225.998 217.656 228.684 220.342 231.998 220.342Z" fill="black" fill-opacity="0.05"/>
<path d="M241.467 232.342C242.704 232.342 243.653 231.22 243.212 230.064C241.489 225.549 237.117 222.342 231.997 222.342C226.876 222.342 222.505 225.549 220.782 230.064C220.341 231.22 221.29 232.342 222.526 232.342H241.467Z" fill="black" fill-opacity="0.05"/>
<path d="M267.998 220.342C271.312 220.342 273.998 217.656 273.998 214.342C273.998 211.028 271.312 208.342 267.998 208.342C264.684 208.342 261.998 211.028 261.998 214.342C261.998 217.656 264.684 220.342 267.998 220.342Z" fill="black" fill-opacity="0.05"/>
<path d="M277.467 232.342C278.704 232.342 279.653 231.22 279.212 230.064C277.489 225.549 273.117 222.342 267.997 222.342C262.876 222.342 258.505 225.549 256.782 230.064C256.341 231.22 257.29 232.342 258.526 232.342H277.467Z" fill="black" fill-opacity="0.05"/>
<path d="M303.998 220.342C307.312 220.342 309.998 217.656 309.998 214.342C309.998 211.028 307.312 208.342 303.998 208.342C300.684 208.342 297.998 211.028 297.998 214.342C297.998 217.656 300.684 220.342 303.998 220.342Z" fill="black" fill-opacity="0.05"/>
<path d="M313.467 232.342C314.704 232.342 315.653 231.22 315.212 230.064C313.489 225.549 309.117 222.342 303.997 222.342C298.876 222.342 294.505 225.549 292.782 230.064C292.341 231.22 293.29 232.342 294.526 232.342H313.467Z" fill="black" fill-opacity="0.05"/>
<path d="M339.998 220.342C343.312 220.342 345.998 217.656 345.998 214.342C345.998 211.028 343.312 208.342 339.998 208.342C336.684 208.342 333.998 211.028 333.998 214.342C333.998 217.656 336.684 220.342 339.998 220.342Z" fill="black" fill-opacity="0.05"/>
<path d="M349.467 232.342C350.704 232.342 351.653 231.22 351.212 230.064C349.489 225.549 345.117 222.342 339.997 222.342C334.876 222.342 330.505 225.549 328.782 230.064C328.341 231.22 329.29 232.342 330.526 232.342H349.467Z" fill="black" fill-opacity="0.05"/>
<path d="M375.998 220.342C379.312 220.342 381.998 217.656 381.998 214.342C381.998 211.028 379.312 208.342 375.998 208.342C372.684 208.342 369.998 211.028 369.998 214.342C369.998 217.656 372.684 220.342 375.998 220.342Z" fill="black" fill-opacity="0.05"/>
<path d="M385.467 232.342C386.704 232.342 387.653 231.22 387.212 230.064C385.489 225.549 381.117 222.342 375.997 222.342C370.876 222.342 366.505 225.549 364.782 230.064C364.341 231.22 365.29 232.342 366.526 232.342H385.467Z" fill="black" fill-opacity="0.05"/>
<path d="M411.998 220.342C415.312 220.342 417.998 217.656 417.998 214.342C417.998 211.028 415.312 208.342 411.998 208.342C408.684 208.342 405.998 211.028 405.998 214.342C405.998 217.656 408.684 220.342 411.998 220.342Z" fill="black" fill-opacity="0.05"/>
<path d="M421.467 232.342C422.704 232.342 423.653 231.22 423.212 230.064C421.489 225.549 417.117 222.342 411.997 222.342C406.876 222.342 402.505 225.549 400.782 230.064C400.341 231.22 401.29 232.342 402.526 232.342H421.467Z" fill="black" fill-opacity="0.05"/>
<path d="M15.998 256.342C19.3118 256.342 21.998 253.656 21.998 250.342C21.998 247.028 19.3118 244.342 15.998 244.342C12.6843 244.342 9.99805 247.028 9.99805 250.342C9.99805 253.656 12.6843 256.342 15.998 256.342Z" fill="#AFF349" fill-opacity="0.8"/>
<path d="M25.4675 268.342C26.7042 268.342 27.6531 267.22 27.2121 266.064C25.489 261.549 21.1175 258.342 15.9969 258.342C10.8763 258.342 6.50481 261.549 4.78168 266.064C4.34073 267.22 5.28955 268.342 6.52629 268.342H25.4675Z" fill="#AFF349" fill-opacity="0.8"/>
<path d="M21.498 250.342C21.498 253.379 19.0356 255.842 15.998 255.842C12.9605 255.842 10.498 253.379 10.498 250.342C10.498 247.304 12.9605 244.842 15.998 244.842C19.0356 244.842 21.498 247.304 21.498 250.342ZM26.745 266.243C27.0336 266.999 26.4343 267.842 25.4675 267.842H6.52629C5.55948 267.842 4.96015 266.999 5.24882 266.243C6.90046 261.915 11.0904 258.842 15.9969 258.842C20.9033 258.842 25.0933 261.915 26.745 266.243Z" stroke="black" stroke-opacity="0.1"/>
<path d="M51.998 256.342C55.3118 256.342 57.998 253.656 57.998 250.342C57.998 247.028 55.3118 244.342 51.998 244.342C48.6843 244.342 45.998 247.028 45.998 250.342C45.998 253.656 48.6843 256.342 51.998 256.342Z" fill="black" fill-opacity="0.05"/>
<path d="M61.4675 268.342C62.7042 268.342 63.6531 267.22 63.2121 266.064C61.489 261.549 57.1175 258.342 51.9969 258.342C46.8763 258.342 42.5048 261.549 40.7817 266.064C40.3407 267.22 41.2895 268.342 42.5263 268.342H61.4675Z" fill="black" fill-opacity="0.05"/>
<path d="M87.998 256.342C91.3118 256.342 93.998 253.656 93.998 250.342C93.998 247.028 91.3118 244.342 87.998 244.342C84.6843 244.342 81.998 247.028 81.998 250.342C81.998 253.656 84.6843 256.342 87.998 256.342Z" fill="black" fill-opacity="0.05"/>
<path d="M97.4675 268.342C98.7042 268.342 99.6531 267.22 99.2121 266.064C97.489 261.549 93.1175 258.342 87.9969 258.342C82.8763 258.342 78.5048 261.549 76.7817 266.064C76.3407 267.22 77.2895 268.342 78.5263 268.342H97.4675Z" fill="black" fill-opacity="0.05"/>
<path d="M123.998 256.342C127.312 256.342 129.998 253.656 129.998 250.342C129.998 247.028 127.312 244.342 123.998 244.342C120.684 244.342 117.998 247.028 117.998 250.342C117.998 253.656 120.684 256.342 123.998 256.342Z" fill="#AFF349" fill-opacity="0.8"/>
<path d="M133.467 268.342C134.704 268.342 135.653 267.22 135.212 266.064C133.489 261.549 129.117 258.342 123.997 258.342C118.876 258.342 114.505 261.549 112.782 266.064C112.341 267.22 113.29 268.342 114.526 268.342H133.467Z" fill="#AFF349" fill-opacity="0.8"/>
<path d="M129.498 250.342C129.498 253.379 127.036 255.842 123.998 255.842C120.96 255.842 118.498 253.379 118.498 250.342C118.498 247.304 120.96 244.842 123.998 244.842C127.036 244.842 129.498 247.304 129.498 250.342ZM134.745 266.243C135.034 266.999 134.434 267.842 133.467 267.842H114.526C113.559 267.842 112.96 266.999 113.249 266.243C114.9 261.915 119.09 258.842 123.997 258.842C128.903 258.842 133.093 261.915 134.745 266.243Z" stroke="black" stroke-opacity="0.1"/>
<path d="M159.998 256.342C163.312 256.342 165.998 253.656 165.998 250.342C165.998 247.028 163.312 244.342 159.998 244.342C156.684 244.342 153.998 247.028 153.998 250.342C153.998 253.656 156.684 256.342 159.998 256.342Z" fill="black" fill-opacity="0.05"/>
<path d="M169.467 268.342C170.704 268.342 171.653 267.22 171.212 266.064C169.489 261.549 165.117 258.342 159.997 258.342C154.876 258.342 150.505 261.549 148.782 266.064C148.341 267.22 149.29 268.342 150.526 268.342H169.467Z" fill="black" fill-opacity="0.05"/>
<path d="M195.998 256.342C199.312 256.342 201.998 253.656 201.998 250.342C201.998 247.028 199.312 244.342 195.998 244.342C192.684 244.342 189.998 247.028 189.998 250.342C189.998 253.656 192.684 256.342 195.998 256.342Z" fill="black" fill-opacity="0.05"/>
<path d="M205.467 268.342C206.704 268.342 207.653 267.22 207.212 266.064C205.489 261.549 201.117 258.342 195.997 258.342C190.876 258.342 186.505 261.549 184.782 266.064C184.341 267.22 185.29 268.342 186.526 268.342H205.467Z" fill="black" fill-opacity="0.05"/>
<path d="M231.998 256.342C235.312 256.342 237.998 253.656 237.998 250.342C237.998 247.028 235.312 244.342 231.998 244.342C228.684 244.342 225.998 247.028 225.998 250.342C225.998 253.656 228.684 256.342 231.998 256.342Z" fill="black" fill-opacity="0.05"/>
<path d="M241.467 268.342C242.704 268.342 243.653 267.22 243.212 266.064C241.489 261.549 237.117 258.342 231.997 258.342C226.876 258.342 222.505 261.549 220.782 266.064C220.341 267.22 221.29 268.342 222.526 268.342H241.467Z" fill="black" fill-opacity="0.05"/>
<path d="M267.998 256.342C271.312 256.342 273.998 253.656 273.998 250.342C273.998 247.028 271.312 244.342 267.998 244.342C264.684 244.342 261.998 247.028 261.998 250.342C261.998 253.656 264.684 256.342 267.998 256.342Z" fill="#AFF349" fill-opacity="0.8"/>
<path d="M277.467 268.342C278.704 268.342 279.653 267.22 279.212 266.064C277.489 261.549 273.117 258.342 267.997 258.342C262.876 258.342 258.505 261.549 256.782 266.064C256.341 267.22 257.29 268.342 258.526 268.342H277.467Z" fill="#AFF349" fill-opacity="0.8"/>
<path d="M273.498 250.342C273.498 253.379 271.036 255.842 267.998 255.842C264.96 255.842 262.498 253.379 262.498 250.342C262.498 247.304 264.96 244.842 267.998 244.842C271.036 244.842 273.498 247.304 273.498 250.342ZM278.745 266.243C279.034 266.999 278.434 267.842 277.467 267.842H258.526C257.559 267.842 256.96 266.999 257.249 266.243C258.9 261.915 263.09 258.842 267.997 258.842C272.903 258.842 277.093 261.915 278.745 266.243Z" stroke="black" stroke-opacity="0.1"/>
<path d="M303.998 256.342C307.312 256.342 309.998 253.656 309.998 250.342C309.998 247.028 307.312 244.342 303.998 244.342C300.684 244.342 297.998 247.028 297.998 250.342C297.998 253.656 300.684 256.342 303.998 256.342Z" fill="black" fill-opacity="0.05"/>
<path d="M313.467 268.342C314.704 268.342 315.653 267.22 315.212 266.064C313.489 261.549 309.117 258.342 303.997 258.342C298.876 258.342 294.505 261.549 292.782 266.064C292.341 267.22 293.29 268.342 294.526 268.342H313.467Z" fill="black" fill-opacity="0.05"/>
<path d="M339.998 256.342C343.312 256.342 345.998 253.656 345.998 250.342C345.998 247.028 343.312 244.342 339.998 244.342C336.684 244.342 333.998 247.028 333.998 250.342C333.998 253.656 336.684 256.342 339.998 256.342Z" fill="black" fill-opacity="0.05"/>
<path d="M349.467 268.342C350.704 268.342 351.653 267.22 351.212 266.064C349.489 261.549 345.117 258.342 339.997 258.342C334.876 258.342 330.505 261.549 328.782 266.064C328.341 267.22 329.29 268.342 330.526 268.342H349.467Z" fill="black" fill-opacity="0.05"/>
<path d="M375.998 256.342C379.312 256.342 381.998 253.656 381.998 250.342C381.998 247.028 379.312 244.342 375.998 244.342C372.684 244.342 369.998 247.028 369.998 250.342C369.998 253.656 372.684 256.342 375.998 256.342Z" fill="black" fill-opacity="0.05"/>
<path d="M385.467 268.342C386.704 268.342 387.653 267.22 387.212 266.064C385.489 261.549 381.117 258.342 375.997 258.342C370.876 258.342 366.505 261.549 364.782 266.064C364.341 267.22 365.29 268.342 366.526 268.342H385.467Z" fill="black" fill-opacity="0.05"/>
<path d="M411.998 256.342C415.312 256.342 417.998 253.656 417.998 250.342C417.998 247.028 415.312 244.342 411.998 244.342C408.684 244.342 405.998 247.028 405.998 250.342C405.998 253.656 408.684 256.342 411.998 256.342Z" fill="black" fill-opacity="0.05"/>
<path d="M421.467 268.342C422.704 268.342 423.653 267.22 423.212 266.064C421.489 261.549 417.117 258.342 411.997 258.342C406.876 258.342 402.505 261.549 400.782 266.064C400.341 267.22 401.29 268.342 402.526 268.342H421.467Z" fill="black" fill-opacity="0.05"/>
</g>
<defs>
<clipPath id="clip0_488_5948">
<rect width="434" height="259" fill="white" transform="translate(0 0.341797)"/>
</clipPath>
</defs>
</svg>
