<svg width="395" height="800" viewBox="0 0 395 800" fill="none" xmlns="http://www.w3.org/2000/svg">
<rect x="0.5" y="0.5" width="394" height="799" fill="black"/>
<rect x="0.5" y="0.5" width="394" height="799" stroke="black"/>
<g clip-path="url(#clip0_1339_154519)">
<path d="M45.9412 176V144.76H52.6292V176H45.9412ZM56.902 176V152.416H62.842L62.974 156.288C64.294 153.12 66.846 151.888 69.97 151.888C75.03 151.888 77.978 155.364 77.978 160.82V176H71.378V163.02C71.378 159.236 70.542 157.124 67.77 157.124C65.042 157.124 63.502 159.236 63.502 163.02V176H56.902ZM90.9164 176C86.0324 176 83.8324 173.844 83.8324 168.916V157.344H80.0484V152.416H83.8324V146.872H90.4324V152.416H96.6364V157.344H90.4324V168.124C90.4324 170.412 91.4004 171.072 93.3364 171.072H96.6364V176H90.9164ZM99.7229 176V152.416H105.971L106.103 157.168C107.071 153.824 108.831 152.416 111.735 152.416H113.891V157.872H111.735C108.039 157.872 106.323 159.236 106.323 162.756V176H99.7229ZM126.327 176.528C119.111 176.528 114.359 171.688 114.359 164.208C114.359 156.772 119.111 151.888 126.327 151.888C133.543 151.888 138.295 156.772 138.295 164.208C138.295 171.688 133.543 176.528 126.327 176.528ZM126.327 171.468C129.627 171.468 131.475 168.784 131.475 164.208C131.475 159.632 129.627 156.948 126.327 156.948C123.027 156.948 121.135 159.632 121.135 164.208C121.135 168.784 123.027 171.468 126.327 171.468ZM149.703 176.528C143.763 176.528 140.067 171.776 140.067 164.208C140.067 156.684 143.851 151.888 149.703 151.888C153.091 151.888 155.599 153.34 156.831 155.76V144.76H163.431V176H157.095L156.963 172.524C155.643 175.076 152.959 176.528 149.703 176.528ZM151.903 171.468C155.071 171.468 156.831 168.96 156.831 164.208C156.831 159.412 155.071 156.948 151.903 156.948C148.823 156.948 146.843 159.72 146.843 164.208C146.843 168.608 148.867 171.468 151.903 171.468ZM174.878 176.528C169.994 176.528 167.134 173.272 167.134 167.596V152.416H173.734V166.056C173.734 169.708 174.834 171.292 177.21 171.292C179.894 171.292 181.478 169.488 181.478 165.748V152.416H188.078V176H182.05L181.962 172.216C180.73 175.076 178.31 176.528 174.878 176.528ZM202.762 176.528C195.502 176.528 190.794 171.644 190.794 164.208C190.794 156.772 195.502 151.888 202.762 151.888C209.01 151.888 213.586 155.32 214.29 161.128L207.47 161.436C207.03 158.532 205.27 156.992 202.762 156.992C199.462 156.992 197.57 159.632 197.57 164.208C197.57 168.784 199.462 171.468 202.762 171.468C205.314 171.468 207.118 169.972 207.47 166.76L214.29 167.024C213.63 172.832 209.142 176.528 202.762 176.528ZM216.529 176V152.416H223.129V176H216.529ZM216.397 149.512V144.232H223.217V149.512H216.397ZM227.026 176V152.416H232.966L233.098 156.288C234.418 153.12 236.97 151.888 240.094 151.888C245.154 151.888 248.102 155.364 248.102 160.82V176H241.502V163.02C241.502 159.236 240.666 157.124 237.894 157.124C235.166 157.124 233.626 159.236 233.626 163.02V176H227.026ZM262.693 183.128C255.917 183.128 252.617 180.4 251.561 176.528L258.337 176.044C258.821 177.584 259.921 178.508 262.693 178.508C265.817 178.508 267.577 177.1 267.577 173.8V171.292C266.433 173.492 263.793 174.9 260.757 174.9C254.949 174.9 250.857 170.412 250.857 163.416C250.857 156.64 254.905 151.888 260.669 151.888C264.101 151.888 266.521 153.56 267.753 156.068V152.416H274.221V173.668C274.221 180.004 269.513 183.128 262.693 183.128ZM262.649 170.016C265.641 170.016 267.577 167.552 267.621 163.372C267.665 159.236 265.685 156.728 262.649 156.728C259.481 156.728 257.633 159.368 257.633 163.372C257.633 167.42 259.569 170.016 262.649 170.016ZM297.115 176C292.231 176 290.031 173.844 290.031 168.916V157.344H286.247V152.416H290.031V146.872H296.631V152.416H302.835V157.344H296.631V168.124C296.631 170.412 297.599 171.072 299.535 171.072H302.835V176H297.115ZM305.706 176V144.76H312.306V155.32C313.582 152.988 316.002 151.888 318.818 151.888C324.098 151.888 326.782 155.584 326.782 160.82V176H320.182V162.404C320.182 158.928 319.17 157.124 316.618 157.124C313.89 157.124 312.306 159.016 312.306 162.58V176H305.706ZM341.418 176.528C334.202 176.528 329.538 171.644 329.538 164.208C329.538 156.772 334.202 151.888 341.374 151.888C348.37 151.888 352.902 156.728 352.902 164.648V165.968H336.358C336.49 169.708 338.47 171.512 341.55 171.512C343.75 171.512 345.29 170.588 345.95 168.652L352.594 169.048C351.318 173.756 347.094 176.528 341.418 176.528ZM346.17 161.92C345.994 158.488 344.102 156.772 341.374 156.772C338.602 156.772 336.71 158.664 336.358 161.92H346.17ZM132.685 226V194.76H145.181C152.661 194.76 157.193 198.632 157.193 204.968C157.193 211.304 152.661 215.22 145.181 215.22H139.373V226H132.685ZM144.785 209.588C148.305 209.588 150.329 208.004 150.329 204.968C150.329 201.932 148.305 200.392 144.785 200.392H139.373V209.588H144.785ZM170.236 226.528C163.02 226.528 158.356 221.644 158.356 214.208C158.356 206.772 163.02 201.888 170.192 201.888C177.188 201.888 181.72 206.728 181.72 214.648V215.968H165.176C165.308 219.708 167.288 221.512 170.368 221.512C172.568 221.512 174.108 220.588 174.768 218.652L181.412 219.048C180.136 223.756 175.912 226.528 170.236 226.528ZM174.988 211.92C174.812 208.488 172.92 206.772 170.192 206.772C167.42 206.772 165.528 208.664 165.176 211.92H174.988ZM191.863 226.528C186.935 226.528 183.591 224.152 183.591 220.104C183.591 215.968 186.187 213.856 191.335 212.8L198.947 211.304C198.947 208.224 197.539 206.684 194.899 206.684C192.435 206.684 191.027 207.872 190.587 210.072L183.987 209.764C184.867 204.572 188.783 201.888 194.899 201.888C201.939 201.888 205.547 205.32 205.547 211.744V219.796C205.547 221.116 205.987 221.468 206.867 221.468H207.527V226C207.087 226.132 206.075 226.264 205.151 226.264C202.731 226.264 200.575 225.428 200.003 222.436C198.771 224.944 195.867 226.528 191.863 226.528ZM193.447 221.996C196.747 221.996 198.947 219.972 198.947 216.584V215.44L193.579 216.584C191.423 217.024 190.367 217.948 190.367 219.488C190.367 221.072 191.423 221.996 193.447 221.996ZM210.228 226V202.416H216.476L216.608 207.168C217.576 203.824 219.336 202.416 222.24 202.416H224.396V207.872H222.24C218.544 207.872 216.828 209.236 216.828 212.756V226H210.228ZM224.507 226L235.771 194.76H243.691L254.955 226H248.003L245.715 219.356H233.703L231.415 226H224.507ZM235.595 213.856H243.867L239.731 201.8L235.595 213.856ZM257.956 226V194.76H264.644V226H257.956ZM84.0476 276V244.76H90.7356V257.476H102.572V244.76H109.26V276H102.572V263.108H90.7356V276H84.0476ZM121.171 276.528C116.243 276.528 112.899 274.152 112.899 270.104C112.899 265.968 115.495 263.856 120.643 262.8L128.255 261.304C128.255 258.224 126.847 256.684 124.207 256.684C121.743 256.684 120.335 257.872 119.895 260.072L113.295 259.764C114.175 254.572 118.091 251.888 124.207 251.888C131.247 251.888 134.855 255.32 134.855 261.744V269.796C134.855 271.116 135.295 271.468 136.175 271.468H136.835V276C136.395 276.132 135.383 276.264 134.459 276.264C132.039 276.264 129.883 275.428 129.311 272.436C128.079 274.944 125.175 276.528 121.171 276.528ZM122.755 271.996C126.055 271.996 128.255 269.972 128.255 266.584V265.44L122.887 266.584C120.731 267.024 119.675 267.948 119.675 269.488C119.675 271.072 120.731 271.996 122.755 271.996ZM150.101 276.528C142.841 276.528 138.133 271.644 138.133 264.208C138.133 256.772 142.841 251.888 150.101 251.888C156.349 251.888 160.925 255.32 161.629 261.128L154.809 261.436C154.369 258.532 152.609 256.992 150.101 256.992C146.801 256.992 144.909 259.632 144.909 264.208C144.909 268.784 146.801 271.468 150.101 271.468C152.653 271.468 154.457 269.972 154.809 266.76L161.629 267.024C160.969 272.832 156.481 276.528 150.101 276.528ZM164.04 276V244.76H170.64V262.096L179.396 252.416H187.316L178.164 262.14L187.58 276H180.364L173.896 265.88L170.64 269.356V276H164.04ZM196.273 276.528C191.345 276.528 188.001 274.152 188.001 270.104C188.001 265.968 190.597 263.856 195.745 262.8L203.357 261.304C203.357 258.224 201.949 256.684 199.309 256.684C196.845 256.684 195.437 257.872 194.997 260.072L188.397 259.764C189.277 254.572 193.193 251.888 199.309 251.888C206.349 251.888 209.957 255.32 209.957 261.744V269.796C209.957 271.116 210.397 271.468 211.277 271.468H211.937V276C211.497 276.132 210.485 276.264 209.561 276.264C207.141 276.264 204.985 275.428 204.413 272.436C203.181 274.944 200.277 276.528 196.273 276.528ZM197.857 271.996C201.157 271.996 203.357 269.972 203.357 266.584V265.44L197.989 266.584C195.833 267.024 194.777 267.948 194.777 269.488C194.777 271.072 195.833 271.996 197.857 271.996ZM222.688 276C217.804 276 215.604 273.844 215.604 268.916V257.344H211.82V252.416H215.604V246.872H222.204V252.416H228.408V257.344H222.204V268.124C222.204 270.412 223.172 271.072 225.108 271.072H228.408V276H222.688ZM231.279 276V244.76H237.879V255.32C239.155 252.988 241.575 251.888 244.391 251.888C249.671 251.888 252.355 255.584 252.355 260.82V276H245.755V262.404C245.755 258.928 244.743 257.124 242.191 257.124C239.463 257.124 237.879 259.016 237.879 262.58V276H231.279ZM267.079 276.528C259.863 276.528 255.111 271.688 255.111 264.208C255.111 256.772 259.863 251.888 267.079 251.888C274.295 251.888 279.047 256.772 279.047 264.208C279.047 271.688 274.295 276.528 267.079 276.528ZM267.079 271.468C270.379 271.468 272.227 268.784 272.227 264.208C272.227 259.632 270.379 256.948 267.079 256.948C263.779 256.948 261.887 259.632 261.887 264.208C261.887 268.784 263.779 271.468 267.079 271.468ZM281.964 276V252.416H287.904L288.036 256.288C289.356 253.12 291.908 251.888 295.032 251.888C300.092 251.888 303.04 255.364 303.04 260.82V276H296.44V263.02C296.44 259.236 295.604 257.124 292.832 257.124C290.104 257.124 288.564 259.236 288.564 263.02V276H281.964ZM306.354 276V269.268H313.482V276H306.354Z" fill="url(#paint0_linear_1339_154519)"/>
<path d="M45.9412 176V144.76H52.6292V176H45.9412ZM56.902 176V152.416H62.842L62.974 156.288C64.294 153.12 66.846 151.888 69.97 151.888C75.03 151.888 77.978 155.364 77.978 160.82V176H71.378V163.02C71.378 159.236 70.542 157.124 67.77 157.124C65.042 157.124 63.502 159.236 63.502 163.02V176H56.902ZM90.9164 176C86.0324 176 83.8324 173.844 83.8324 168.916V157.344H80.0484V152.416H83.8324V146.872H90.4324V152.416H96.6364V157.344H90.4324V168.124C90.4324 170.412 91.4004 171.072 93.3364 171.072H96.6364V176H90.9164ZM99.7229 176V152.416H105.971L106.103 157.168C107.071 153.824 108.831 152.416 111.735 152.416H113.891V157.872H111.735C108.039 157.872 106.323 159.236 106.323 162.756V176H99.7229ZM126.327 176.528C119.111 176.528 114.359 171.688 114.359 164.208C114.359 156.772 119.111 151.888 126.327 151.888C133.543 151.888 138.295 156.772 138.295 164.208C138.295 171.688 133.543 176.528 126.327 176.528ZM126.327 171.468C129.627 171.468 131.475 168.784 131.475 164.208C131.475 159.632 129.627 156.948 126.327 156.948C123.027 156.948 121.135 159.632 121.135 164.208C121.135 168.784 123.027 171.468 126.327 171.468ZM149.703 176.528C143.763 176.528 140.067 171.776 140.067 164.208C140.067 156.684 143.851 151.888 149.703 151.888C153.091 151.888 155.599 153.34 156.831 155.76V144.76H163.431V176H157.095L156.963 172.524C155.643 175.076 152.959 176.528 149.703 176.528ZM151.903 171.468C155.071 171.468 156.831 168.96 156.831 164.208C156.831 159.412 155.071 156.948 151.903 156.948C148.823 156.948 146.843 159.72 146.843 164.208C146.843 168.608 148.867 171.468 151.903 171.468ZM174.878 176.528C169.994 176.528 167.134 173.272 167.134 167.596V152.416H173.734V166.056C173.734 169.708 174.834 171.292 177.21 171.292C179.894 171.292 181.478 169.488 181.478 165.748V152.416H188.078V176H182.05L181.962 172.216C180.73 175.076 178.31 176.528 174.878 176.528ZM202.762 176.528C195.502 176.528 190.794 171.644 190.794 164.208C190.794 156.772 195.502 151.888 202.762 151.888C209.01 151.888 213.586 155.32 214.29 161.128L207.47 161.436C207.03 158.532 205.27 156.992 202.762 156.992C199.462 156.992 197.57 159.632 197.57 164.208C197.57 168.784 199.462 171.468 202.762 171.468C205.314 171.468 207.118 169.972 207.47 166.76L214.29 167.024C213.63 172.832 209.142 176.528 202.762 176.528ZM216.529 176V152.416H223.129V176H216.529ZM216.397 149.512V144.232H223.217V149.512H216.397ZM227.026 176V152.416H232.966L233.098 156.288C234.418 153.12 236.97 151.888 240.094 151.888C245.154 151.888 248.102 155.364 248.102 160.82V176H241.502V163.02C241.502 159.236 240.666 157.124 237.894 157.124C235.166 157.124 233.626 159.236 233.626 163.02V176H227.026ZM262.693 183.128C255.917 183.128 252.617 180.4 251.561 176.528L258.337 176.044C258.821 177.584 259.921 178.508 262.693 178.508C265.817 178.508 267.577 177.1 267.577 173.8V171.292C266.433 173.492 263.793 174.9 260.757 174.9C254.949 174.9 250.857 170.412 250.857 163.416C250.857 156.64 254.905 151.888 260.669 151.888C264.101 151.888 266.521 153.56 267.753 156.068V152.416H274.221V173.668C274.221 180.004 269.513 183.128 262.693 183.128ZM262.649 170.016C265.641 170.016 267.577 167.552 267.621 163.372C267.665 159.236 265.685 156.728 262.649 156.728C259.481 156.728 257.633 159.368 257.633 163.372C257.633 167.42 259.569 170.016 262.649 170.016ZM297.115 176C292.231 176 290.031 173.844 290.031 168.916V157.344H286.247V152.416H290.031V146.872H296.631V152.416H302.835V157.344H296.631V168.124C296.631 170.412 297.599 171.072 299.535 171.072H302.835V176H297.115ZM305.706 176V144.76H312.306V155.32C313.582 152.988 316.002 151.888 318.818 151.888C324.098 151.888 326.782 155.584 326.782 160.82V176H320.182V162.404C320.182 158.928 319.17 157.124 316.618 157.124C313.89 157.124 312.306 159.016 312.306 162.58V176H305.706ZM341.418 176.528C334.202 176.528 329.538 171.644 329.538 164.208C329.538 156.772 334.202 151.888 341.374 151.888C348.37 151.888 352.902 156.728 352.902 164.648V165.968H336.358C336.49 169.708 338.47 171.512 341.55 171.512C343.75 171.512 345.29 170.588 345.95 168.652L352.594 169.048C351.318 173.756 347.094 176.528 341.418 176.528ZM346.17 161.92C345.994 158.488 344.102 156.772 341.374 156.772C338.602 156.772 336.71 158.664 336.358 161.92H346.17ZM132.685 226V194.76H145.181C152.661 194.76 157.193 198.632 157.193 204.968C157.193 211.304 152.661 215.22 145.181 215.22H139.373V226H132.685ZM144.785 209.588C148.305 209.588 150.329 208.004 150.329 204.968C150.329 201.932 148.305 200.392 144.785 200.392H139.373V209.588H144.785ZM170.236 226.528C163.02 226.528 158.356 221.644 158.356 214.208C158.356 206.772 163.02 201.888 170.192 201.888C177.188 201.888 181.72 206.728 181.72 214.648V215.968H165.176C165.308 219.708 167.288 221.512 170.368 221.512C172.568 221.512 174.108 220.588 174.768 218.652L181.412 219.048C180.136 223.756 175.912 226.528 170.236 226.528ZM174.988 211.92C174.812 208.488 172.92 206.772 170.192 206.772C167.42 206.772 165.528 208.664 165.176 211.92H174.988ZM191.863 226.528C186.935 226.528 183.591 224.152 183.591 220.104C183.591 215.968 186.187 213.856 191.335 212.8L198.947 211.304C198.947 208.224 197.539 206.684 194.899 206.684C192.435 206.684 191.027 207.872 190.587 210.072L183.987 209.764C184.867 204.572 188.783 201.888 194.899 201.888C201.939 201.888 205.547 205.32 205.547 211.744V219.796C205.547 221.116 205.987 221.468 206.867 221.468H207.527V226C207.087 226.132 206.075 226.264 205.151 226.264C202.731 226.264 200.575 225.428 200.003 222.436C198.771 224.944 195.867 226.528 191.863 226.528ZM193.447 221.996C196.747 221.996 198.947 219.972 198.947 216.584V215.44L193.579 216.584C191.423 217.024 190.367 217.948 190.367 219.488C190.367 221.072 191.423 221.996 193.447 221.996ZM210.228 226V202.416H216.476L216.608 207.168C217.576 203.824 219.336 202.416 222.24 202.416H224.396V207.872H222.24C218.544 207.872 216.828 209.236 216.828 212.756V226H210.228ZM224.507 226L235.771 194.76H243.691L254.955 226H248.003L245.715 219.356H233.703L231.415 226H224.507ZM235.595 213.856H243.867L239.731 201.8L235.595 213.856ZM257.956 226V194.76H264.644V226H257.956ZM84.0476 276V244.76H90.7356V257.476H102.572V244.76H109.26V276H102.572V263.108H90.7356V276H84.0476ZM121.171 276.528C116.243 276.528 112.899 274.152 112.899 270.104C112.899 265.968 115.495 263.856 120.643 262.8L128.255 261.304C128.255 258.224 126.847 256.684 124.207 256.684C121.743 256.684 120.335 257.872 119.895 260.072L113.295 259.764C114.175 254.572 118.091 251.888 124.207 251.888C131.247 251.888 134.855 255.32 134.855 261.744V269.796C134.855 271.116 135.295 271.468 136.175 271.468H136.835V276C136.395 276.132 135.383 276.264 134.459 276.264C132.039 276.264 129.883 275.428 129.311 272.436C128.079 274.944 125.175 276.528 121.171 276.528ZM122.755 271.996C126.055 271.996 128.255 269.972 128.255 266.584V265.44L122.887 266.584C120.731 267.024 119.675 267.948 119.675 269.488C119.675 271.072 120.731 271.996 122.755 271.996ZM150.101 276.528C142.841 276.528 138.133 271.644 138.133 264.208C138.133 256.772 142.841 251.888 150.101 251.888C156.349 251.888 160.925 255.32 161.629 261.128L154.809 261.436C154.369 258.532 152.609 256.992 150.101 256.992C146.801 256.992 144.909 259.632 144.909 264.208C144.909 268.784 146.801 271.468 150.101 271.468C152.653 271.468 154.457 269.972 154.809 266.76L161.629 267.024C160.969 272.832 156.481 276.528 150.101 276.528ZM164.04 276V244.76H170.64V262.096L179.396 252.416H187.316L178.164 262.14L187.58 276H180.364L173.896 265.88L170.64 269.356V276H164.04ZM196.273 276.528C191.345 276.528 188.001 274.152 188.001 270.104C188.001 265.968 190.597 263.856 195.745 262.8L203.357 261.304C203.357 258.224 201.949 256.684 199.309 256.684C196.845 256.684 195.437 257.872 194.997 260.072L188.397 259.764C189.277 254.572 193.193 251.888 199.309 251.888C206.349 251.888 209.957 255.32 209.957 261.744V269.796C209.957 271.116 210.397 271.468 211.277 271.468H211.937V276C211.497 276.132 210.485 276.264 209.561 276.264C207.141 276.264 204.985 275.428 204.413 272.436C203.181 274.944 200.277 276.528 196.273 276.528ZM197.857 271.996C201.157 271.996 203.357 269.972 203.357 266.584V265.44L197.989 266.584C195.833 267.024 194.777 267.948 194.777 269.488C194.777 271.072 195.833 271.996 197.857 271.996ZM222.688 276C217.804 276 215.604 273.844 215.604 268.916V257.344H211.82V252.416H215.604V246.872H222.204V252.416H228.408V257.344H222.204V268.124C222.204 270.412 223.172 271.072 225.108 271.072H228.408V276H222.688ZM231.279 276V244.76H237.879V255.32C239.155 252.988 241.575 251.888 244.391 251.888C249.671 251.888 252.355 255.584 252.355 260.82V276H245.755V262.404C245.755 258.928 244.743 257.124 242.191 257.124C239.463 257.124 237.879 259.016 237.879 262.58V276H231.279ZM267.079 276.528C259.863 276.528 255.111 271.688 255.111 264.208C255.111 256.772 259.863 251.888 267.079 251.888C274.295 251.888 279.047 256.772 279.047 264.208C279.047 271.688 274.295 276.528 267.079 276.528ZM267.079 271.468C270.379 271.468 272.227 268.784 272.227 264.208C272.227 259.632 270.379 256.948 267.079 256.948C263.779 256.948 261.887 259.632 261.887 264.208C261.887 268.784 263.779 271.468 267.079 271.468ZM281.964 276V252.416H287.904L288.036 256.288C289.356 253.12 291.908 251.888 295.032 251.888C300.092 251.888 303.04 255.364 303.04 260.82V276H296.44V263.02C296.44 259.236 295.604 257.124 292.832 257.124C290.104 257.124 288.564 259.236 288.564 263.02V276H281.964ZM306.354 276V269.268H313.482V276H306.354Z" fill="white"/>
<path d="M59.6458 316.256C56.6058 316.256 54.5418 314.016 54.5418 310.336C54.5418 306.656 56.6058 304.384 59.6458 304.384C62.3978 304.384 63.8538 305.872 64.3338 308.256L62.8778 308.352C62.5578 306.736 61.5338 305.728 59.6458 305.728C57.4698 305.728 55.9818 307.456 55.9818 310.336C55.9818 313.216 57.4698 314.912 59.6458 314.912C61.6298 314.912 62.6858 313.808 62.9738 312.032L64.4298 312.128C64.0138 314.592 62.3658 316.256 59.6458 316.256ZM69.7728 316.192C67.4208 316.192 65.8848 314.464 65.8848 311.76C65.8848 309.056 67.4208 307.328 69.7728 307.328C72.1088 307.328 73.6448 309.056 73.6448 311.76C73.6448 314.464 72.1088 316.192 69.7728 316.192ZM69.7728 314.912C71.3248 314.912 72.2368 313.728 72.2368 311.76C72.2368 309.792 71.3248 308.608 69.7728 308.608C68.2048 308.608 67.2928 309.792 67.2928 311.76C67.2928 313.728 68.2048 314.912 69.7728 314.912ZM75.6003 316V307.52H76.8323L76.8643 309.008C77.2803 307.968 78.1603 307.328 79.2483 307.328C80.5283 307.328 81.4243 307.968 81.7923 309.104C82.1603 307.968 83.0243 307.328 84.2723 307.328C86.0803 307.328 87.0723 308.496 87.0723 310.544V316H85.7283V310.832C85.7283 309.296 85.1203 308.512 83.9523 308.512C82.7683 308.512 82.0003 309.408 82.0003 310.928V316H80.6563V310.928C80.6563 309.424 80.1603 308.512 78.9123 308.512C77.7283 308.512 76.9443 309.424 76.9443 310.928V316H75.6003ZM89.6316 316V307.52H90.9756V316H89.6316ZM89.5996 306.192V304.624H91.0076V306.192H89.5996ZM93.3034 316V307.52H94.5354L94.5674 309.04C95.0154 307.872 96.0074 307.328 97.1754 307.328C99.1114 307.328 100.039 308.752 100.039 310.544V316H98.6954V310.928C98.6954 309.36 98.1674 308.512 96.8874 308.512C95.5754 308.512 94.6474 309.36 94.6474 310.928V316H93.3034ZM105.63 318.592C103.806 318.592 102.43 317.616 102.078 316.128L103.486 316.032C103.742 316.832 104.318 317.312 105.63 317.312C107.166 317.312 108.014 316.704 108.014 315.456V314.08C107.598 314.976 106.638 315.552 105.534 315.552C103.374 315.552 101.838 313.856 101.838 311.44C101.838 309.024 103.342 307.328 105.47 307.328C106.654 307.328 107.694 307.92 108.078 308.864V307.52H109.358V315.424C109.358 317.408 107.966 318.592 105.63 318.592ZM105.598 314.272C107.054 314.272 107.998 313.184 108.014 311.44C108.046 309.696 107.07 308.608 105.598 308.608C104.11 308.608 103.246 309.696 103.246 311.44C103.246 313.184 104.142 314.272 105.598 314.272ZM119.049 316.192C116.777 316.192 115.513 314.992 115.385 313.328L116.793 313.232C116.953 314.256 117.609 314.912 119.049 314.912C120.201 314.912 120.953 314.56 120.953 313.728C120.953 313.056 120.617 312.768 118.793 312.448C116.361 312.016 115.593 311.264 115.593 309.92C115.593 308.416 116.745 307.328 118.793 307.328C120.857 307.328 121.945 308.576 122.201 310.048L120.793 310.144C120.601 309.248 119.929 308.608 118.777 308.608C117.561 308.608 117.001 309.136 117.001 309.856C117.001 310.688 117.545 311.008 119.049 311.264C121.641 311.712 122.361 312.384 122.361 313.728C122.361 315.296 120.921 316.192 119.049 316.192ZM127.679 316.192C125.327 316.192 123.791 314.464 123.791 311.76C123.791 309.056 125.327 307.328 127.679 307.328C130.015 307.328 131.551 309.056 131.551 311.76C131.551 314.464 130.015 316.192 127.679 316.192ZM127.679 314.912C129.231 314.912 130.143 313.728 130.143 311.76C130.143 309.792 129.231 308.608 127.679 308.608C126.111 308.608 125.199 309.792 125.199 311.76C125.199 313.728 126.111 314.912 127.679 314.912ZM136.867 316.192C134.515 316.192 132.979 314.464 132.979 311.76C132.979 309.056 134.515 307.328 136.867 307.328C139.203 307.328 140.739 309.056 140.739 311.76C140.739 314.464 139.203 316.192 136.867 316.192ZM136.867 314.912C138.419 314.912 139.331 313.728 139.331 311.76C139.331 309.792 138.419 308.608 136.867 308.608C135.299 308.608 134.387 309.792 134.387 311.76C134.387 313.728 135.299 314.912 136.867 314.912ZM142.694 316V307.52H143.926L143.958 309.04C144.406 307.872 145.398 307.328 146.566 307.328C148.502 307.328 149.43 308.752 149.43 310.544V316H148.086V310.928C148.086 309.36 147.558 308.512 146.278 308.512C144.966 308.512 144.038 309.36 144.038 310.928V316H142.694ZM151.463 316V314.192H153.271V316H151.463ZM163.991 316.256C160.759 316.256 158.807 314.016 158.807 310.336C158.807 306.656 160.759 304.384 163.991 304.384C167.239 304.384 169.191 306.656 169.191 310.336C169.191 314.016 167.239 316.256 163.991 316.256ZM163.991 314.912C166.343 314.912 167.751 313.216 167.751 310.336C167.751 307.456 166.343 305.728 163.991 305.728C161.655 305.728 160.247 307.456 160.247 310.336C160.247 313.216 161.655 314.912 163.991 314.912ZM173.182 316L170.094 307.52H171.566L174.03 314.624L176.494 307.52H177.966L174.878 316H173.182ZM182.554 316.192C180.154 316.192 178.666 314.448 178.666 311.76C178.666 309.072 180.154 307.328 182.49 307.328C184.698 307.328 186.234 308.928 186.234 311.776V312.176H180.074C180.17 314 181.082 314.912 182.554 314.912C183.658 314.912 184.378 314.352 184.666 313.488L186.106 313.6C185.658 315.12 184.346 316.192 182.554 316.192ZM184.762 310.992C184.634 309.36 183.738 308.608 182.49 308.608C181.178 308.608 180.298 309.424 180.074 310.992H184.762ZM188.194 316V307.52H189.378L189.426 309.088C189.73 308.016 190.402 307.52 191.442 307.52H192.274V308.8H191.458C190.178 308.8 189.538 309.488 189.538 310.88V316H188.194ZM201.743 317.456V316.208C199.535 315.952 198.143 314.448 197.967 312.368L199.407 312.272C199.599 313.712 200.383 314.624 201.743 314.848V310.752C199.135 310.096 198.207 309.312 198.207 307.616C198.207 305.776 199.551 304.48 201.743 304.384V303.12H202.943V304.464C204.863 304.816 205.983 306.208 206.207 308L204.767 308.096C204.623 307.024 204.015 306.176 202.943 305.856V309.68C205.551 310.384 206.447 311.456 206.447 313.024C206.447 314.864 205.007 316.08 202.943 316.24V317.456H201.743ZM199.647 307.552C199.647 308.48 200.079 308.896 201.743 309.376V305.728C200.463 305.808 199.647 306.512 199.647 307.552ZM202.943 314.896C204.255 314.784 205.007 314.176 205.007 313.12C205.007 312.24 204.639 311.648 202.943 311.088V314.896ZM210.406 316V307.584H208.038V306.4H208.998C210.246 306.4 210.694 305.984 210.694 304.64H211.782V316H210.406ZM218.899 316.256C216.147 316.256 214.403 313.968 214.403 310.336C214.403 306.688 216.147 304.384 218.899 304.384C221.667 304.384 223.411 306.672 223.411 310.336C223.411 313.968 221.667 316.256 218.899 316.256ZM218.899 314.912C220.867 314.912 221.971 313.264 221.971 310.336C221.971 307.392 220.867 305.728 218.899 305.728C216.947 305.728 215.843 307.392 215.843 310.336C215.843 313.264 216.947 314.912 218.899 314.912ZM225.241 316V304.64H226.585V312.08L230.713 307.52H232.505L229.161 311.12L232.649 316H231.017L228.249 312.032L226.585 313.792V316H225.241ZM238.678 316V307.52H240.022V316H238.678ZM238.646 306.192V304.624H240.054V306.192H238.646ZM242.35 316V307.52H243.582L243.614 309.04C244.062 307.872 245.054 307.328 246.222 307.328C248.158 307.328 249.086 308.752 249.086 310.544V316H247.742V310.928C247.742 309.36 247.214 308.512 245.934 308.512C244.622 308.512 243.694 309.36 243.694 310.928V316H242.35ZM259.007 316.192C256.639 316.192 255.119 314.448 255.119 311.76C255.119 309.072 256.639 307.328 259.007 307.328C260.959 307.328 262.319 308.384 262.607 310.272L261.199 310.368C261.007 309.248 260.159 308.608 259.007 308.608C257.439 308.608 256.527 309.792 256.527 311.76C256.527 313.728 257.439 314.912 259.007 314.912C260.159 314.912 261.007 314.272 261.199 312.992L262.607 313.088C262.319 314.976 260.959 316.192 259.007 316.192ZM266.811 316.192C265.051 316.192 263.947 315.344 263.947 313.888C263.947 312.448 264.763 311.648 266.619 311.296L269.627 310.736C269.627 309.312 268.955 308.608 267.611 308.608C266.427 308.608 265.771 309.152 265.515 310.128L264.091 310.016C264.411 308.416 265.691 307.328 267.611 307.328C269.787 307.328 270.971 308.64 270.971 310.784V314.288C270.971 314.672 271.099 314.816 271.419 314.816H271.755V316C271.659 316.016 271.451 316.032 271.243 316.032C270.219 316.032 269.755 315.632 269.643 314.688C269.227 315.568 268.059 316.192 266.811 316.192ZM266.939 315.008C268.635 315.008 269.627 313.92 269.627 312.512V311.904L266.875 312.416C265.723 312.624 265.355 313.056 265.355 313.76C265.355 314.56 265.947 315.008 266.939 315.008ZM276.58 316.192C274.308 316.192 273.044 314.992 272.916 313.328L274.324 313.232C274.484 314.256 275.14 314.912 276.58 314.912C277.732 314.912 278.484 314.56 278.484 313.728C278.484 313.056 278.148 312.768 276.324 312.448C273.892 312.016 273.124 311.264 273.124 309.92C273.124 308.416 274.276 307.328 276.324 307.328C278.388 307.328 279.476 308.576 279.732 310.048L278.324 310.144C278.132 309.248 277.46 308.608 276.308 308.608C275.092 308.608 274.532 309.136 274.532 309.856C274.532 310.688 275.076 311.008 276.58 311.264C279.172 311.712 279.892 312.384 279.892 313.728C279.892 315.296 278.452 316.192 276.58 316.192ZM281.616 316V304.64H282.96V308.848C283.392 307.808 284.352 307.328 285.52 307.328C287.344 307.328 288.352 308.656 288.352 310.544V316H287.008V310.928C287.008 309.296 286.416 308.512 285.232 308.512C283.856 308.512 282.96 309.376 282.96 310.944V316H281.616ZM294.913 318.4V307.52H296.161L296.177 308.816C296.689 307.84 297.633 307.328 298.785 307.328C301.313 307.328 302.449 309.424 302.449 311.76C302.449 314.096 301.313 316.192 298.785 316.192C297.681 316.192 296.705 315.696 296.257 314.88V318.4H294.913ZM298.657 314.912C300.129 314.912 301.041 313.744 301.041 311.76C301.041 309.776 300.129 308.608 298.657 308.608C297.185 308.608 296.257 309.68 296.257 311.76C296.257 313.84 297.169 314.912 298.657 314.912ZM304.397 316V307.52H305.581L305.629 309.088C305.933 308.016 306.605 307.52 307.645 307.52H308.477V308.8H307.661C306.381 308.8 305.741 309.488 305.741 310.88V316H304.397ZM310.272 316V307.52H311.616V316H310.272ZM310.24 306.192V304.624H311.648V306.192H310.24ZM313.81 316V314.656L319.17 308.704H313.97V307.52H320.642V308.864L315.282 314.816H320.77V316H313.81ZM326.085 316.192C323.685 316.192 322.197 314.448 322.197 311.76C322.197 309.072 323.685 307.328 326.021 307.328C328.229 307.328 329.765 308.928 329.765 311.776V312.176H323.605C323.701 314 324.613 314.912 326.085 314.912C327.189 314.912 327.909 314.352 328.197 313.488L329.637 313.6C329.189 315.12 327.877 316.192 326.085 316.192ZM328.293 310.992C328.165 309.36 327.269 308.608 326.021 308.608C324.709 308.608 323.829 309.424 323.605 310.992H328.293ZM334.861 316.192C332.589 316.192 331.325 314.992 331.197 313.328L332.605 313.232C332.765 314.256 333.421 314.912 334.861 314.912C336.013 314.912 336.765 314.56 336.765 313.728C336.765 313.056 336.429 312.768 334.605 312.448C332.173 312.016 331.405 311.264 331.405 309.92C331.405 308.416 332.557 307.328 334.605 307.328C336.669 307.328 337.757 308.576 338.013 310.048L336.605 310.144C336.413 309.248 335.741 308.608 334.589 308.608C333.373 308.608 332.813 309.136 332.813 309.856C332.813 310.688 333.357 311.008 334.861 311.264C337.453 311.712 338.173 312.384 338.173 313.728C338.173 315.296 336.733 316.192 334.861 316.192ZM339.682 316V314.192H341.49V316H339.682Z" fill="white"/>
<g opacity="0.1" filter="url(#filter0_dif_1339_154519)">
<circle cx="198.244" cy="944.756" r="498.756" fill="#00C458"/>
</g>
<g opacity="0.1" filter="url(#filter1_dif_1339_154519)">
<ellipse cx="198.244" cy="944.756" rx="462.947" ry="463.218" fill="#00C458"/>
</g>
<g opacity="0.2" filter="url(#filter2_dif_1339_154519)">
<ellipse cx="198.379" cy="944.756" rx="427.273" ry="427.408" fill="#00C458"/>
</g>
<g opacity="0.3" filter="url(#filter3_dif_1339_154519)">
<ellipse cx="198.379" cy="944.756" rx="392.006" ry="392.141" fill="#00C458"/>
</g>
<g opacity="0.5" filter="url(#filter4_dif_1339_154519)">
<ellipse cx="198.379" cy="944.756" rx="356.196" ry="356.332" fill="#00C458"/>
</g>
<g opacity="0.7" filter="url(#filter5_dif_1339_154519)">
<ellipse cx="198.379" cy="944.756" rx="320.658" ry="320.522" fill="#00C458"/>
</g>
<g filter="url(#filter6_dif_1339_154519)">
<ellipse cx="198.379" cy="944.756" rx="284.577" ry="284.442" fill="#00C458"/>
</g>
<g filter="url(#filter7_dif_1339_154519)">
<ellipse cx="198.515" cy="944.756" rx="241.85" ry="241.579" fill="#00C458"/>
</g>
</g>
<defs>
<filter id="filter0_dif_1339_154519" x="-358.665" y="426.105" width="1070.97" height="1070.97" filterUnits="userSpaceOnUse" color-interpolation-filters="sRGB">
<feFlood flood-opacity="0" result="BackgroundImageFix"/>
<feColorMatrix in="SourceAlpha" type="matrix" values="0 0 0 0 0 0 0 0 0 0 0 0 0 0 0 0 0 0 127 0" result="hardAlpha"/>
<feOffset dx="-21.4248" dy="16.8338"/>
<feGaussianBlur stdDeviation="18.3642"/>
<feComposite in2="hardAlpha" operator="out"/>
<feColorMatrix type="matrix" values="0 0 0 0 0.474333 0 0 0 0 1 0 0 0 0 0.929911 0 0 0 0.06 0"/>
<feBlend mode="normal" in2="BackgroundImageFix" result="effect1_dropShadow_1339_154519"/>
<feBlend mode="normal" in="SourceGraphic" in2="effect1_dropShadow_1339_154519" result="shape"/>
<feColorMatrix in="SourceAlpha" type="matrix" values="0 0 0 0 0 0 0 0 0 0 0 0 0 0 0 0 0 0 127 0" result="hardAlpha"/>
<feOffset dx="-21.4248" dy="41.3193"/>
<feGaussianBlur stdDeviation="30.6069"/>
<feComposite in2="hardAlpha" operator="arithmetic" k2="-1" k3="1"/>
<feColorMatrix type="matrix" values="0 0 0 0 0.926797 0 0 0 0 1 0 0 0 0 0.121569 0 0 0 1 0"/>
<feBlend mode="normal" in2="shape" result="effect2_innerShadow_1339_154519"/>
<feGaussianBlur stdDeviation="3.06069" result="effect3_foregroundBlur_1339_154519"/>
</filter>
<filter id="filter1_dif_1339_154519" x="-322.856" y="461.644" width="999.35" height="999.892" filterUnits="userSpaceOnUse" color-interpolation-filters="sRGB">
<feFlood flood-opacity="0" result="BackgroundImageFix"/>
<feColorMatrix in="SourceAlpha" type="matrix" values="0 0 0 0 0 0 0 0 0 0 0 0 0 0 0 0 0 0 127 0" result="hardAlpha"/>
<feOffset dx="-21.4248" dy="16.8338"/>
<feGaussianBlur stdDeviation="18.3642"/>
<feComposite in2="hardAlpha" operator="out"/>
<feColorMatrix type="matrix" values="0 0 0 0 0.474333 0 0 0 0 1 0 0 0 0 0.929911 0 0 0 0.06 0"/>
<feBlend mode="normal" in2="BackgroundImageFix" result="effect1_dropShadow_1339_154519"/>
<feBlend mode="normal" in="SourceGraphic" in2="effect1_dropShadow_1339_154519" result="shape"/>
<feColorMatrix in="SourceAlpha" type="matrix" values="0 0 0 0 0 0 0 0 0 0 0 0 0 0 0 0 0 0 127 0" result="hardAlpha"/>
<feOffset dx="-21.4248" dy="41.3193"/>
<feGaussianBlur stdDeviation="30.6069"/>
<feComposite in2="hardAlpha" operator="arithmetic" k2="-1" k3="1"/>
<feColorMatrix type="matrix" values="0 0 0 0 0.926797 0 0 0 0 1 0 0 0 0 0.121569 0 0 0 1 0"/>
<feBlend mode="normal" in2="shape" result="effect2_innerShadow_1339_154519"/>
<feGaussianBlur stdDeviation="3.06069" result="effect3_foregroundBlur_1339_154519"/>
</filter>
<filter id="filter2_dif_1339_154519" x="-287.047" y="497.453" width="928.002" height="928.273" filterUnits="userSpaceOnUse" color-interpolation-filters="sRGB">
<feFlood flood-opacity="0" result="BackgroundImageFix"/>
<feColorMatrix in="SourceAlpha" type="matrix" values="0 0 0 0 0 0 0 0 0 0 0 0 0 0 0 0 0 0 127 0" result="hardAlpha"/>
<feOffset dx="-21.4248" dy="16.8338"/>
<feGaussianBlur stdDeviation="18.3642"/>
<feComposite in2="hardAlpha" operator="out"/>
<feColorMatrix type="matrix" values="0 0 0 0 0.474333 0 0 0 0 1 0 0 0 0 0.929911 0 0 0 0.06 0"/>
<feBlend mode="normal" in2="BackgroundImageFix" result="effect1_dropShadow_1339_154519"/>
<feBlend mode="normal" in="SourceGraphic" in2="effect1_dropShadow_1339_154519" result="shape"/>
<feColorMatrix in="SourceAlpha" type="matrix" values="0 0 0 0 0 0 0 0 0 0 0 0 0 0 0 0 0 0 127 0" result="hardAlpha"/>
<feOffset dx="-21.4248" dy="41.3193"/>
<feGaussianBlur stdDeviation="30.6069"/>
<feComposite in2="hardAlpha" operator="arithmetic" k2="-1" k3="1"/>
<feColorMatrix type="matrix" values="0 0 0 0 0.926797 0 0 0 0 1 0 0 0 0 0.121569 0 0 0 1 0"/>
<feBlend mode="normal" in2="shape" result="effect2_innerShadow_1339_154519"/>
<feGaussianBlur stdDeviation="3.06069" result="effect3_foregroundBlur_1339_154519"/>
</filter>
<filter id="filter3_dif_1339_154519" x="-251.78" y="532.72" width="857.468" height="857.739" filterUnits="userSpaceOnUse" color-interpolation-filters="sRGB">
<feFlood flood-opacity="0" result="BackgroundImageFix"/>
<feColorMatrix in="SourceAlpha" type="matrix" values="0 0 0 0 0 0 0 0 0 0 0 0 0 0 0 0 0 0 127 0" result="hardAlpha"/>
<feOffset dx="-21.4248" dy="16.8338"/>
<feGaussianBlur stdDeviation="18.3642"/>
<feComposite in2="hardAlpha" operator="out"/>
<feColorMatrix type="matrix" values="0 0 0 0 0.474333 0 0 0 0 1 0 0 0 0 0.929911 0 0 0 0.06 0"/>
<feBlend mode="normal" in2="BackgroundImageFix" result="effect1_dropShadow_1339_154519"/>
<feBlend mode="normal" in="SourceGraphic" in2="effect1_dropShadow_1339_154519" result="shape"/>
<feColorMatrix in="SourceAlpha" type="matrix" values="0 0 0 0 0 0 0 0 0 0 0 0 0 0 0 0 0 0 127 0" result="hardAlpha"/>
<feOffset dx="-21.4248" dy="41.3193"/>
<feGaussianBlur stdDeviation="30.6069"/>
<feComposite in2="hardAlpha" operator="arithmetic" k2="-1" k3="1"/>
<feColorMatrix type="matrix" values="0 0 0 0 0.926797 0 0 0 0 1 0 0 0 0 0.121569 0 0 0 1 0"/>
<feBlend mode="normal" in2="shape" result="effect2_innerShadow_1339_154519"/>
<feGaussianBlur stdDeviation="3.06069" result="effect3_foregroundBlur_1339_154519"/>
</filter>
<filter id="filter4_dif_1339_154519" x="-215.97" y="568.53" width="785.849" height="786.12" filterUnits="userSpaceOnUse" color-interpolation-filters="sRGB">
<feFlood flood-opacity="0" result="BackgroundImageFix"/>
<feColorMatrix in="SourceAlpha" type="matrix" values="0 0 0 0 0 0 0 0 0 0 0 0 0 0 0 0 0 0 127 0" result="hardAlpha"/>
<feOffset dx="-21.4248" dy="16.8338"/>
<feGaussianBlur stdDeviation="18.3642"/>
<feComposite in2="hardAlpha" operator="out"/>
<feColorMatrix type="matrix" values="0 0 0 0 0.474333 0 0 0 0 1 0 0 0 0 0.929911 0 0 0 0.06 0"/>
<feBlend mode="normal" in2="BackgroundImageFix" result="effect1_dropShadow_1339_154519"/>
<feBlend mode="normal" in="SourceGraphic" in2="effect1_dropShadow_1339_154519" result="shape"/>
<feColorMatrix in="SourceAlpha" type="matrix" values="0 0 0 0 0 0 0 0 0 0 0 0 0 0 0 0 0 0 127 0" result="hardAlpha"/>
<feOffset dx="-21.4248" dy="41.3193"/>
<feGaussianBlur stdDeviation="30.6069"/>
<feComposite in2="hardAlpha" operator="arithmetic" k2="-1" k3="1"/>
<feColorMatrix type="matrix" values="0 0 0 0 0.926797 0 0 0 0 1 0 0 0 0 0.121569 0 0 0 1 0"/>
<feBlend mode="normal" in2="shape" result="effect2_innerShadow_1339_154519"/>
<feGaussianBlur stdDeviation="3.06069" result="effect3_foregroundBlur_1339_154519"/>
</filter>
<filter id="filter5_dif_1339_154519" x="-180.432" y="604.339" width="714.773" height="714.501" filterUnits="userSpaceOnUse" color-interpolation-filters="sRGB">
<feFlood flood-opacity="0" result="BackgroundImageFix"/>
<feColorMatrix in="SourceAlpha" type="matrix" values="0 0 0 0 0 0 0 0 0 0 0 0 0 0 0 0 0 0 127 0" result="hardAlpha"/>
<feOffset dx="-21.4248" dy="16.8338"/>
<feGaussianBlur stdDeviation="18.3642"/>
<feComposite in2="hardAlpha" operator="out"/>
<feColorMatrix type="matrix" values="0 0 0 0 0.474333 0 0 0 0 1 0 0 0 0 0.929911 0 0 0 0.06 0"/>
<feBlend mode="normal" in2="BackgroundImageFix" result="effect1_dropShadow_1339_154519"/>
<feBlend mode="normal" in="SourceGraphic" in2="effect1_dropShadow_1339_154519" result="shape"/>
<feColorMatrix in="SourceAlpha" type="matrix" values="0 0 0 0 0 0 0 0 0 0 0 0 0 0 0 0 0 0 127 0" result="hardAlpha"/>
<feOffset dx="-21.4248" dy="41.3193"/>
<feGaussianBlur stdDeviation="30.6069"/>
<feComposite in2="hardAlpha" operator="arithmetic" k2="-1" k3="1"/>
<feColorMatrix type="matrix" values="0 0 0 0 0.926797 0 0 0 0 1 0 0 0 0 0.121569 0 0 0 1 0"/>
<feBlend mode="normal" in2="shape" result="effect2_innerShadow_1339_154519"/>
<feGaussianBlur stdDeviation="3.06069" result="effect3_foregroundBlur_1339_154519"/>
</filter>
<filter id="filter6_dif_1339_154519" x="-144.351" y="640.42" width="642.611" height="642.34" filterUnits="userSpaceOnUse" color-interpolation-filters="sRGB">
<feFlood flood-opacity="0" result="BackgroundImageFix"/>
<feColorMatrix in="SourceAlpha" type="matrix" values="0 0 0 0 0 0 0 0 0 0 0 0 0 0 0 0 0 0 127 0" result="hardAlpha"/>
<feOffset dx="-21.4248" dy="16.8338"/>
<feGaussianBlur stdDeviation="18.3642"/>
<feComposite in2="hardAlpha" operator="out"/>
<feColorMatrix type="matrix" values="0 0 0 0 0.474333 0 0 0 0 1 0 0 0 0 0.929911 0 0 0 0.06 0"/>
<feBlend mode="normal" in2="BackgroundImageFix" result="effect1_dropShadow_1339_154519"/>
<feBlend mode="normal" in="SourceGraphic" in2="effect1_dropShadow_1339_154519" result="shape"/>
<feColorMatrix in="SourceAlpha" type="matrix" values="0 0 0 0 0 0 0 0 0 0 0 0 0 0 0 0 0 0 127 0" result="hardAlpha"/>
<feOffset dx="-21.4248" dy="41.3193"/>
<feGaussianBlur stdDeviation="30.6069"/>
<feComposite in2="hardAlpha" operator="arithmetic" k2="-1" k3="1"/>
<feColorMatrix type="matrix" values="0 0 0 0 0.926797 0 0 0 0 1 0 0 0 0 0.121569 0 0 0 1 0"/>
<feBlend mode="normal" in2="shape" result="effect2_innerShadow_1339_154519"/>
<feGaussianBlur stdDeviation="3.06069" result="effect3_foregroundBlur_1339_154519"/>
</filter>
<filter id="filter7_dif_1339_154519" x="-101.488" y="683.283" width="557.156" height="556.614" filterUnits="userSpaceOnUse" color-interpolation-filters="sRGB">
<feFlood flood-opacity="0" result="BackgroundImageFix"/>
<feColorMatrix in="SourceAlpha" type="matrix" values="0 0 0 0 0 0 0 0 0 0 0 0 0 0 0 0 0 0 127 0" result="hardAlpha"/>
<feOffset dx="-21.4248" dy="16.8338"/>
<feGaussianBlur stdDeviation="18.3642"/>
<feComposite in2="hardAlpha" operator="out"/>
<feColorMatrix type="matrix" values="0 0 0 0 0.474333 0 0 0 0 1 0 0 0 0 0.929911 0 0 0 0.06 0"/>
<feBlend mode="normal" in2="BackgroundImageFix" result="effect1_dropShadow_1339_154519"/>
<feBlend mode="normal" in="SourceGraphic" in2="effect1_dropShadow_1339_154519" result="shape"/>
<feColorMatrix in="SourceAlpha" type="matrix" values="0 0 0 0 0 0 0 0 0 0 0 0 0 0 0 0 0 0 127 0" result="hardAlpha"/>
<feOffset dx="-21.4248" dy="41.3193"/>
<feGaussianBlur stdDeviation="30.6069"/>
<feComposite in2="hardAlpha" operator="arithmetic" k2="-1" k3="1"/>
<feColorMatrix type="matrix" values="0 0 0 0 0.926797 0 0 0 0 1 0 0 0 0 0.121569 0 0 0 1 0"/>
<feBlend mode="normal" in2="shape" result="effect2_innerShadow_1339_154519"/>
<feGaussianBlur stdDeviation="3.06069" result="effect3_foregroundBlur_1339_154519"/>
</filter>
<linearGradient id="paint0_linear_1339_154519" x1="22" y1="211" x2="374" y2="211" gradientUnits="userSpaceOnUse">
<stop stop-color="#1EDFB2"/>
<stop offset="1" stop-color="#12A885"/>
</linearGradient>
<clipPath id="clip0_1339_154519">
<rect width="392" height="798" fill="white" transform="translate(2 1)"/>
</clipPath>
</defs>
</svg>
