<svg width="441" height="312" viewBox="0 0 441 312" fill="none" xmlns="http://www.w3.org/2000/svg">
<mask id="path-1-inside-1_488_6250" fill="white">
<path fill-rule="evenodd" clip-rule="evenodd" d="M239.51 17.9297C227.576 17.9297 217.9 27.6048 217.9 39.5396V62.9504C217.9 74.8853 227.575 84.5604 239.51 84.5604H412.39C413.529 84.5604 414.648 84.4722 415.74 84.3023C423.834 83.5585 424.639 84.0005 428.755 86.2608C429.481 86.6592 430.309 87.114 431.299 87.6288C434.94 89.5237 438.207 89.6146 439.786 87.2339C441.327 84.9117 441.707 82.252 437.602 79.1579C434.374 76.7254 432.652 74.1853 433.616 67.025C433.868 65.7055 434 64.3433 434 62.9504V39.5396C434 27.6048 424.325 17.9297 412.39 17.9297H239.51Z"/>
</mask>
<path fill-rule="evenodd" clip-rule="evenodd" d="M239.51 17.9297C227.576 17.9297 217.9 27.6048 217.9 39.5396V62.9504C217.9 74.8853 227.575 84.5604 239.51 84.5604H412.39C413.529 84.5604 414.648 84.4722 415.74 84.3023C423.834 83.5585 424.639 84.0005 428.755 86.2608C429.481 86.6592 430.309 87.114 431.299 87.6288C434.94 89.5237 438.207 89.6146 439.786 87.2339C441.327 84.9117 441.707 82.252 437.602 79.1579C434.374 76.7254 432.652 74.1853 433.616 67.025C433.868 65.7055 434 64.3433 434 62.9504V39.5396C434 27.6048 424.325 17.9297 412.39 17.9297H239.51Z" fill="#F9F9F9"/>
<path fill-rule="evenodd" clip-rule="evenodd" d="M239.51 17.9297C227.576 17.9297 217.9 27.6048 217.9 39.5396V62.9504C217.9 74.8853 227.575 84.5604 239.51 84.5604H412.39C413.529 84.5604 414.648 84.4722 415.74 84.3023C423.834 83.5585 424.639 84.0005 428.755 86.2608C429.481 86.6592 430.309 87.114 431.299 87.6288C434.94 89.5237 438.207 89.6146 439.786 87.2339C441.327 84.9117 441.707 82.252 437.602 79.1579C434.374 76.7254 432.652 74.1853 433.616 67.025C433.868 65.7055 434 64.3433 434 62.9504V39.5396C434 27.6048 424.325 17.9297 412.39 17.9297H239.51Z" fill="#B3F353" fill-opacity="0.8"/>
<path d="M415.74 84.3023L415.557 82.3107L415.494 82.3165L415.432 82.3261L415.74 84.3023ZM428.755 86.2608L429.718 84.5077L429.718 84.5077L428.755 86.2608ZM431.299 87.6288L430.375 89.403L431.299 87.6288ZM439.786 87.2339L441.453 88.3394L439.786 87.2339ZM437.602 79.1579L436.398 80.7551L437.602 79.1579ZM433.616 67.025L431.652 66.6502L431.642 66.7039L431.634 66.758L433.616 67.025ZM219.9 39.5396C219.9 28.7094 228.68 19.9297 239.51 19.9297V15.9297C226.471 15.9297 215.9 26.5002 215.9 39.5396H219.9ZM219.9 62.9504V39.5396H215.9V62.9504H219.9ZM239.51 82.5604C228.68 82.5604 219.9 73.7807 219.9 62.9504H215.9C215.9 75.9899 226.471 86.5604 239.51 86.5604V82.5604ZM412.39 82.5604H239.51V86.5604H412.39V82.5604ZM415.432 82.3261C414.442 82.4802 413.426 82.5604 412.39 82.5604V86.5604C413.633 86.5604 414.854 86.4642 416.047 86.2785L415.432 82.3261ZM429.718 84.5077C427.708 83.4039 426.191 82.5509 424.081 82.1845C422.055 81.8325 419.574 81.9415 415.557 82.3107L415.923 86.2939C419.999 85.9193 421.968 85.8774 423.397 86.1255C424.743 86.3593 425.687 86.8574 427.793 88.0139L429.718 84.5077ZM432.222 85.8547C431.255 85.3513 430.444 84.9062 429.718 84.5077L427.793 88.0139C428.518 88.4122 429.364 88.8768 430.375 89.403L432.222 85.8547ZM438.12 86.1284C437.749 86.6875 437.195 87.0113 436.264 87.0354C435.253 87.0615 433.87 86.7122 432.222 85.8547L430.375 89.403C432.369 90.4403 434.44 91.0839 436.368 91.034C438.376 90.9821 440.245 90.161 441.453 88.3394L438.12 86.1284ZM436.398 80.7551C438.236 82.1401 438.731 83.1765 438.839 83.8168C438.945 84.4482 438.755 85.1708 438.12 86.1284L441.453 88.3394C442.358 86.9748 443.128 85.2064 442.784 83.1539C442.44 81.1103 441.073 79.2698 438.805 77.5607L436.398 80.7551ZM431.634 66.758C431.131 70.4935 431.285 73.3055 432.173 75.5894C433.08 77.9216 434.651 79.439 436.398 80.7551L438.805 77.5607C437.324 76.4443 436.42 75.4754 435.901 74.1394C435.362 72.755 435.137 70.7168 435.598 67.2921L431.634 66.758ZM432 62.9504C432 64.2169 431.88 65.4535 431.652 66.6502L435.581 67.3999C435.856 65.9574 436 64.4698 436 62.9504H432ZM432 39.5396V62.9504H436V39.5396H432ZM412.39 19.9297C423.22 19.9297 432 28.7094 432 39.5396H436C436 26.5002 425.429 15.9297 412.39 15.9297V19.9297ZM239.51 19.9297H412.39V15.9297H239.51V19.9297Z" fill="black" fill-opacity="0.1" mask="url(#path-1-inside-1_488_6250)"/>
<rect y="111.572" width="434" height="212.498" rx="21.61" fill="black" fill-opacity="0.02"/>
<rect x="0.5" y="112.072" width="433" height="211.498" rx="21.11" stroke="black" stroke-opacity="0.1"/>
<path fill-rule="evenodd" clip-rule="evenodd" d="M30.2179 142.131C30.7453 142.659 30.7453 143.514 30.2179 144.041L26.6708 147.588L30.2179 151.135C30.7453 151.663 30.7453 152.518 30.2179 153.045C29.6904 153.573 28.8353 153.573 28.3078 153.045L23.8057 148.543C23.2783 148.016 23.2783 147.161 23.8057 146.633L28.3078 142.131C28.8353 141.604 29.6904 141.604 30.2179 142.131Z" fill="black" fill-opacity="0.1"/>
<path fill-rule="evenodd" clip-rule="evenodd" d="M41.814 142.131C41.2866 142.659 41.2866 143.514 41.814 144.041L45.3611 147.588L41.814 151.135C41.2866 151.663 41.2866 152.518 41.814 153.045C42.3415 153.573 43.1967 153.573 43.7241 153.045L48.2262 148.543C48.7536 148.016 48.7536 147.161 48.2262 146.633L43.7241 142.131C43.1967 141.604 42.3415 141.604 41.814 142.131Z" fill="black" fill-opacity="0.1"/>
<path fill-rule="evenodd" clip-rule="evenodd" d="M37.5576 136.797C38.296 136.902 38.8091 137.587 38.7036 138.325L36.0024 157.234C35.8969 157.972 35.2128 158.485 34.4743 158.38C33.7359 158.274 33.2228 157.59 33.3283 156.852L36.0295 137.943C36.135 137.205 36.8192 136.691 37.5576 136.797Z" fill="black" fill-opacity="0.1"/>
<rect x="376.373" y="125.979" width="43.2199" height="43.2199" rx="14.4066" fill="black" fill-opacity="0.05"/>
<path d="M388.979 139.905C388.979 137.773 391.332 136.482 393.13 137.626L405.206 145.311C406.874 146.372 406.874 148.807 405.206 149.869L393.13 157.554C391.332 158.698 388.979 157.406 388.979 155.275V139.905Z" fill="black" fill-opacity="0.1"/>
<rect x="14.4062" y="183.605" width="291.734" height="14.4066" rx="7.20332" fill="black" fill-opacity="0.05"/>
<rect x="36.0156" y="212.418" width="253.917" height="14.4066" rx="7.20332" fill="black" fill-opacity="0.05"/>
<rect x="36.0156" y="241.232" width="198.091" height="14.4066" rx="7.20332" fill="black" fill-opacity="0.05"/>
<rect x="14.4062" y="270.045" width="70.2324" height="14.4066" rx="7.20332" fill="black" fill-opacity="0.05"/>
</svg>
