<svg width="25" height="24" viewBox="0 0 25 24" fill="none" xmlns="http://www.w3.org/2000/svg">
<path d="M13.625 4.125C13.625 3.50368 13.1213 3 12.5 3C11.8787 3 11.375 3.50368 11.375 4.125L11.375 12.659L8.04549 9.3295C7.60615 8.89017 6.89384 8.89016 6.4545 9.3295C6.01516 9.76884 6.01516 10.4812 6.4545 10.9205L11.7045 16.1705C12.1438 16.6098 12.8562 16.6098 13.2955 16.1705L18.5455 10.9205C18.9848 10.4812 18.9848 9.76885 18.5455 9.32951C18.1062 8.89017 17.3938 8.89017 16.9545 9.32951L13.625 12.659L13.625 4.125Z" fill="white"/>
<path d="M5.75 14.625C5.75 14.0037 5.24632 13.5 4.625 13.5C4.00368 13.5 3.5 14.0037 3.5 14.625V16.875C3.5 19.1532 5.34683 21 7.625 21H17.375C19.6532 21 21.5 19.1532 21.5 16.875V14.625C21.5 14.0037 20.9963 13.5 20.375 13.5C19.7537 13.5 19.25 14.0037 19.25 14.625V16.875C19.25 17.9105 18.4105 18.75 17.375 18.75H7.625C6.58947 18.75 5.75 17.9105 5.75 16.875V14.625Z" fill="white"/>
</svg>
