<svg width="28" height="28" viewBox="0 0 28 28" fill="none" xmlns="http://www.w3.org/2000/svg">
<g opacity="0.8">
<g clip-path="url(#clip0_1937_2112)">
<path d="M25.0668 9.5452C24.9044 9.6712 22.0372 11.2868 22.0372 14.8792C22.0372 19.0344 25.6856 20.5044 25.7948 20.5408C25.778 20.6304 25.2152 22.554 23.8712 24.514C22.6728 26.2388 21.4212 27.9608 19.5172 27.9608C17.6132 27.9608 17.1232 26.8548 14.9252 26.8548C12.7832 26.8548 12.0216 27.9972 10.28 27.9972C8.5384 27.9972 7.3232 26.4012 5.926 24.4412C4.3076 22.1396 3 18.564 3 15.1704C3 9.7272 6.5392 6.8404 10.0224 6.8404C11.8732 6.8404 13.416 8.0556 14.578 8.0556C15.684 8.0556 17.4088 6.7676 19.5144 6.7676C20.3124 6.7676 23.1796 6.8404 25.0668 9.5452ZM18.5148 4.4632C19.3856 3.43 20.0016 1.9964 20.0016 0.5628C20.0016 0.364 19.9848 0.1624 19.9484 0C18.5316 0.0532 16.846 0.9436 15.8296 2.1224C15.0316 3.0296 14.2868 4.4632 14.2868 5.9164C14.2868 6.1348 14.3232 6.3532 14.34 6.4232C14.4296 6.44 14.5752 6.4596 14.7208 6.4596C15.992 6.4596 17.5908 5.6084 18.5148 4.4632Z" fill="currentColor" fill-opacity="0.8"/>
</g>
</g>
<defs>
<clipPath id="clip0_1937_2112">
<rect width="22.792" height="28" fill="white" transform="translate(3)"/>
</clipPath>
</defs>
</svg>
