<svg width="28" height="47" viewBox="0 0 33 54" fill="none" xmlns="http://www.w3.org/2000/svg">
<path fill-rule="evenodd" clip-rule="evenodd" d="M16.6777 11.291C16.6874 11.291 16.6971 11.291 16.7069 11.291V11.291C24.5039 11.2957 24.5871 11.6175 26.1198 17.5492C26.4761 18.9283 26.9108 20.6105 27.539 22.6625C29.4403 28.8734 29.8013 29.7801 30.2167 30.8234C30.5335 31.6191 30.8819 32.4943 31.9695 35.8629C34.4213 43.4564 31.5198 53.3489 16.7069 53.8312V53.833C16.6971 53.8327 16.6874 53.8324 16.6777 53.8321C16.668 53.8324 16.6582 53.8327 16.6485 53.833V53.8312C1.83555 53.3489 -1.06591 43.4564 1.38583 35.8629C2.47344 32.4943 2.82189 31.6191 3.1387 30.8234C3.55409 29.7801 3.91509 28.8734 5.81641 22.6625C6.44458 20.6105 6.87926 18.9283 7.23559 17.5492C8.76828 11.6175 8.85144 11.2957 16.6485 11.291V11.291C16.6582 11.291 16.668 11.291 16.6777 11.291Z" fill="#14BD95"/>
<circle cx="24.4485" cy="28.5447" r="1.7122" fill="#FFFEFE"/>
<g filter="url(#filter0_d_439_1016)">
<path fill-rule="evenodd" clip-rule="evenodd" d="M20.7084 10.2213L20.6802 10.2461C20.6792 10.2367 20.6781 10.2261 20.6769 10.2142C20.6642 10.2112 20.6528 10.2086 20.643 10.2062L20.6735 10.179C20.6083 9.48138 20.3876 5.79965 22.6722 3.29741C24.9934 0.755105 29.973 1.09334 30.789 1.16762L30.8058 1.15262L30.907 1.15495C30.907 1.15495 30.8205 6.91949 27.7567 9.0955C24.9935 11.0581 21.3889 10.3743 20.7084 10.2213Z" fill="#14BD95"/>
</g>
<path d="M28.5317 39.0014C28.5317 43.0139 23 45.9554 23 45.9554C23 45.9554 26.161 43.0139 26.161 39.0014C26.161 34.9888 23.3161 33.3966 25.3707 32.6701C27.4254 31.9436 28.5317 34.9888 28.5317 39.0014Z" fill="#FFFAFA"/>
<defs>
<filter id="filter0_d_439_1016" x="19.5821" y="1.11133" width="12.3788" height="11.4569" filterUnits="userSpaceOnUse" color-interpolation-filters="sRGB">
<feFlood flood-opacity="0" result="BackgroundImageFix"/>
<feColorMatrix in="SourceAlpha" type="matrix" values="0 0 0 0 0 0 0 0 0 0 0 0 0 0 0 0 0 0 127 0" result="hardAlpha"/>
<feOffset dy="1.05366"/>
<feGaussianBlur stdDeviation="0.52683"/>
<feComposite in2="hardAlpha" operator="out"/>
<feColorMatrix type="matrix" values="0 0 0 0 0 0 0 0 0 0 0 0 0 0 0 0 0 0 0.25 0"/>
<feBlend mode="normal" in2="BackgroundImageFix" result="effect1_dropShadow_439_1016"/>
<feBlend mode="normal" in="SourceGraphic" in2="effect1_dropShadow_439_1016" result="shape"/>
</filter>
</defs>
</svg>
