<svg width="14" height="28" viewBox="0 0 14 28" fill="none" xmlns="http://www.w3.org/2000/svg">
<path fill-rule="evenodd" clip-rule="evenodd" d="M7.00005 7.4336C7.00394 7.4336 7.00783 7.4336 7.01172 7.43359V7.43361C10.2497 7.43554 10.2842 7.56946 10.9206 10.0401C11.0686 10.6145 11.2491 11.3152 11.5099 12.1698C12.2994 14.7566 12.4493 15.1343 12.6218 15.5688C12.7533 15.9003 12.898 16.2648 13.3496 17.6678C14.3676 20.8306 13.1628 24.9509 7.01172 25.1516V25.1523C7.00783 25.1522 7.00394 25.1521 7.00005 25.152C6.99617 25.1521 6.99228 25.1522 6.98839 25.1523V25.1516C0.837323 24.9509 -0.367516 20.8306 0.650525 17.6678C1.10212 16.2648 1.2468 15.9003 1.37835 15.5688C1.55083 15.1343 1.70072 14.7566 2.49019 12.1698C2.75102 11.3152 2.9315 10.6145 3.07946 10.0402L3.07946 10.0401C3.7159 7.56946 3.75039 7.43554 6.98839 7.43361V7.43359C6.99228 7.4336 6.99617 7.4336 7.00005 7.4336Z" fill="black"/>
<circle cx="10.2266" cy="14.6016" r="0.710938" fill="black"/>
<path fill-rule="evenodd" clip-rule="evenodd" d="M8.67562 6.59188L8.66348 6.60258C8.66305 6.59855 8.66257 6.59394 8.66206 6.58878C8.6567 6.58754 8.65194 6.58641 8.64781 6.58542L8.66064 6.57397C8.63349 6.28179 8.54269 4.74985 9.49059 3.70844C10.4562 2.64758 12.5298 2.79097 12.8627 2.82155L12.8676 2.8172L12.9098 2.81819C12.9098 2.81819 12.8748 5.21849 11.6025 6.12409C10.4558 6.94039 8.95953 6.65591 8.67562 6.59188Z" fill="black"/>
<path d="M11.9258 18.9787C11.9258 20.6499 9.62891 21.875 9.62891 21.875C9.62891 21.875 10.9414 20.6499 10.9414 18.9787C10.9414 17.3074 9.76016 16.6443 10.6133 16.3417C11.4664 16.0391 11.9258 17.3074 11.9258 18.9787Z" fill="black"/>
</svg>
