<svg width="70" height="70" viewBox="0 0 70 70" fill="none" xmlns="http://www.w3.org/2000/svg">
<path fill-rule="evenodd" clip-rule="evenodd" d="M35 18.5938C35.0101 18.5938 35.0202 18.5938 35.0303 18.5938V18.5938C43.124 18.5986 43.2103 18.9337 44.8014 25.1101L44.8014 25.1102C45.1713 26.5461 45.6225 28.2977 46.2745 30.4343C48.2482 36.9014 48.6229 37.8455 49.0541 38.9319C49.383 39.7604 49.7447 40.6717 50.8737 44.1792C53.4187 52.086 50.4068 62.3865 35.0303 62.8887V62.8906C35.0202 62.8903 35.0101 62.89 35 62.8897C34.9899 62.89 34.9798 62.8903 34.9697 62.8906V62.8887C19.5931 62.3865 16.5813 52.086 19.1263 44.1792C20.2553 40.6717 20.617 39.7604 20.9459 38.9319C21.3771 37.8455 21.7518 36.9014 23.7255 30.4343C24.3775 28.2977 24.8288 26.5461 25.1986 25.1101C26.7897 18.9337 26.876 18.5986 34.9697 18.5938V18.5938C34.9798 18.5938 34.9899 18.5938 35 18.5938Z" fill="#3CEAC1"/>
<circle cx="43.0664" cy="36.5039" r="1.77734" fill="#FFFEFE"/>
<path fill-rule="evenodd" clip-rule="evenodd" d="M39.1869 17.4768L39.1547 17.5052C39.1536 17.4946 39.1523 17.4824 39.1509 17.4686C39.1376 17.4655 39.1258 17.4627 39.1155 17.4603L39.1474 17.4318C39.0794 16.6972 38.8545 12.8712 41.2224 10.2696C43.6347 7.61942 48.8128 7.97545 49.6509 8.05224L49.665 8.03971L49.7704 8.04219C49.7704 8.04219 49.6829 14.0429 46.5023 16.3069C43.6379 18.3459 39.9013 17.6377 39.1869 17.4768Z" fill="#3CEAC1"/>
<path d="M47.3047 47.4467C47.3047 51.6247 41.5625 54.6875 41.5625 54.6875C41.5625 54.6875 44.8437 51.6247 44.8437 47.4467C44.8437 43.2686 41.8906 41.6107 44.0234 40.8542C46.1562 40.0977 47.3047 43.2686 47.3047 47.4467Z" fill="#FFFAFA"/>
</svg>
