<svg xmlns="http://www.w3.org/2000/svg" width="28" height="31" fill="none"><g filter="url(#a)"><path fill="url(#b)" fill-rule="evenodd" d="M11 6.25h.007c1.85.001 1.87.078 2.233 1.49.085.328.188.728.337 1.216.451 1.479.537 1.694.635 1.943.075.19.158.397.416 1.2.582 1.806-.106 4.16-3.621 4.276h-.014c-3.515-.115-4.203-2.47-3.621-4.277.258-.802.34-1.01.416-1.2.098-.248.184-.463.635-1.942.149-.488.252-.888.337-1.217.363-1.411.383-1.488 2.233-1.489H11Z" clip-rule="evenodd"/></g><circle cx="12.844" cy="10.344" r=".406" fill="#FFFEFE"/><path fill="url(#c)" fill-rule="evenodd" d="M11.957 5.995 11.95 6l-.001-.008-.008-.002.007-.007c-.016-.168-.067-1.042.474-1.637.552-.605 1.735-.524 1.927-.507l.003-.002h.024s-.02 1.372-.747 1.89c-.655.465-1.509.303-1.672.267Z" clip-rule="evenodd"/><path fill="snow" d="M13.813 12.845c0 .955-1.313 1.655-1.313 1.655s.75-.7.75-1.655c0-.955-.675-1.334-.188-1.507.488-.173.75.552.75 1.507Z"/><defs><linearGradient id="b" x1="12.5" x2="8.5" y1="6.5" y2="15.5" gradientUnits="userSpaceOnUse"><stop stop-color="#CDDF5A"/><stop offset="1" stop-color="#1FB906"/></linearGradient><linearGradient id="c" x1="13.157" x2="13.159" y1="3.828" y2="6.051" gradientUnits="userSpaceOnUse"><stop stop-color="#CDDF5A"/><stop offset="1" stop-color="#27B52D"/></linearGradient><filter id="a" width="27.625" height="30.125" x=".188" y=".25" color-interpolation-filters="sRGB" filterUnits="userSpaceOnUse"><feFlood flood-opacity="0" result="BackgroundImageFix"/><feColorMatrix in="SourceAlpha" result="hardAlpha" values="0 0 0 0 0 0 0 0 0 0 0 0 0 0 0 0 0 0 127 0"/><feOffset dx="3" dy="4"/><feGaussianBlur stdDeviation="5"/><feComposite in2="hardAlpha" operator="out"/><feColorMatrix values="0 0 0 0 0 0 0 0 0 0 0 0 0 0 0 0 0 0 0.25 0"/><feBlend in2="BackgroundImageFix" result="effect1_dropShadow_6014_1357"/><feBlend in="SourceGraphic" in2="effect1_dropShadow_6014_1357" result="shape"/></filter></defs></svg>