<svg width="15" height="29" viewBox="0 0 15 29" fill="none" xmlns="http://www.w3.org/2000/svg">
<path fill-rule="evenodd" clip-rule="evenodd" d="M9.73475 7.28263L9.72205 7.2938C9.72161 7.28961 9.72111 7.2848 9.72057 7.27939C9.71517 7.27813 9.71038 7.277 9.70624 7.276L9.71915 7.26447C9.6919 6.97006 9.60225 5.44019 10.5492 4.39984C11.5138 3.34003 13.5843 3.4821 13.9203 3.51287L13.926 3.50782L13.9684 3.50882C13.9684 3.50882 13.9333 5.90912 12.6611 6.81471C11.5151 7.63051 10.02 7.34689 9.73475 7.28263Z" fill="white"/>
<path fill-rule="evenodd" clip-rule="evenodd" d="M7.32818 7.7793C7.33206 7.7793 7.33595 7.7793 7.33984 7.7793V7.77931C10.5778 7.78124 10.6123 7.91516 11.2488 10.3859C11.3967 10.9602 11.5772 11.6609 11.838 12.5155C12.6275 15.1023 12.7774 15.48 12.9499 15.9145C13.0814 16.246 13.2261 16.6105 13.6777 18.0135C14.6957 21.1763 13.4909 25.2966 7.33984 25.4973V25.498C7.33595 25.4979 7.33206 25.4978 7.32818 25.4977C7.32429 25.4978 7.3204 25.4979 7.31651 25.498V25.4973C1.16545 25.2966 -0.0393905 21.1763 0.97865 18.0135C1.43025 16.6105 1.57493 16.246 1.70648 15.9145C1.87895 15.48 2.02885 15.1023 2.81831 12.5155C3.07914 11.6609 3.25963 10.9602 3.40758 10.3859L3.40758 10.3859C4.04402 7.91516 4.07852 7.78124 7.31651 7.77931V7.7793C7.32041 7.7793 7.32429 7.7793 7.32818 7.7793Z" fill="white"/>
<circle cx="10.2266" cy="15.627" r="0.710938" fill="white"/>
<path d="M11.9258 20.0041C11.9258 21.6753 9.62891 22.9004 9.62891 22.9004C9.62891 22.9004 10.9414 21.6753 10.9414 20.0041C10.9414 18.3328 9.76016 17.6697 10.6133 17.3671C11.4664 17.0645 11.9258 18.3328 11.9258 20.0041Z" fill="white"/>
</svg>
