<svg xmlns="http://www.w3.org/2000/svg" width="70" height="77" fill="none"><g filter="url(#a)"><path fill="url(#b)" fill-rule="evenodd" d="M35 18.594h.03c8.094.005 8.18.34 9.771 6.516.37 1.436.822 3.188 1.474 5.324 1.973 6.467 2.348 7.412 2.78 8.498.328.828.69 1.74 1.819 5.247 2.545 7.907-.467 18.207-15.844 18.71v.002L35 62.89h-.03v-.001c-15.377-.503-18.389-10.803-15.844-18.71 1.13-3.507 1.491-4.419 1.82-5.247.431-1.087.806-2.03 2.78-8.498a118.228 118.228 0 0 0 1.473-5.324c1.59-6.176 1.677-6.511 9.77-6.516H35Z" clip-rule="evenodd"/></g><circle cx="43.066" cy="36.504" r="1.777" fill="#FFFEFE"/><path fill="url(#c)" fill-rule="evenodd" d="m39.187 17.477-.032.028-.004-.036-.035-.009.032-.028c-.069-.735-.293-4.56 2.075-7.162 2.412-2.65 7.59-2.295 8.428-2.218l.014-.012.105.002s-.087 6-3.268 8.265c-2.864 2.039-6.6 1.33-7.315 1.17Z" clip-rule="evenodd"/><path fill="snow" d="M47.305 47.447c0 4.178-5.742 7.24-5.742 7.24s3.28-3.062 3.28-7.24c0-4.178-2.952-5.836-.82-6.593 2.133-.756 3.282 2.415 3.282 6.593Z"/><defs><linearGradient id="b" x1="41.563" x2="24.063" y1="19.688" y2="59.063" gradientUnits="userSpaceOnUse"><stop stop-color="#CDDF5A"/><stop offset="1" stop-color="#1FB906"/></linearGradient><linearGradient id="c" x1="44.437" x2="44.444" y1="7.996" y2="17.724" gradientUnits="userSpaceOnUse"><stop stop-color="#CDDF5A"/><stop offset="1" stop-color="#27B52D"/></linearGradient><filter id="a" width="53.359" height="64.297" x="11.32" y="12.594" color-interpolation-filters="sRGB" filterUnits="userSpaceOnUse"><feFlood flood-opacity="0" result="BackgroundImageFix"/><feColorMatrix in="SourceAlpha" result="hardAlpha" values="0 0 0 0 0 0 0 0 0 0 0 0 0 0 0 0 0 0 127 0"/><feOffset dx="3" dy="4"/><feGaussianBlur stdDeviation="5"/><feComposite in2="hardAlpha" operator="out"/><feColorMatrix values="0 0 0 0 0 0 0 0 0 0 0 0 0 0 0 0 0 0 0.25 0"/><feBlend in2="BackgroundImageFix" result="effect1_dropShadow_6014_1445"/><feBlend in="SourceGraphic" in2="effect1_dropShadow_6014_1445" result="shape"/></filter></defs></svg>