<svg width="240" height="241" viewBox="0 0 240 241" fill="none" xmlns="http://www.w3.org/2000/svg">
<g clip-path="url(#clip0_1923_176071)">
<rect y="0.165039" width="240" height="240" rx="64" fill="#08A6A1"/>
<circle opacity="0.6" cx="120.999" cy="-97.3608" r="142.682" fill="#AFF349"/>
<circle opacity="0.4" cx="120.998" cy="-97.3613" r="171.586" fill="#AFF349"/>
<circle opacity="0.2" cx="121" cy="-97.3613" r="200" fill="#AFF349"/>
<circle opacity="0.8" cx="121.003" cy="-97.3607" r="114.268" fill="#AFF349"/>
<circle opacity="0.6" cx="120.999" cy="340.639" r="142.682" fill="#784FDE"/>
<circle opacity="0.4" cx="120.998" cy="340.639" r="171.586" fill="#784FDE"/>
<circle opacity="0.2" cx="121" cy="340.639" r="200" fill="#784FDE"/>
<circle opacity="0.8" cx="121.003" cy="340.638" r="114.268" fill="#784FDE"/>
<path fill-rule="evenodd" clip-rule="evenodd" d="M86 84.165C86 88.6675 87.4878 92.8224 89.9985 96.165H72C67.5817 96.165 64 99.7468 64 104.165C64 108.583 67.5817 112.165 72 112.165H114V96.165H126V112.165H168C172.418 112.165 176 108.583 176 104.165C176 99.7468 172.418 96.165 168 96.165H149.994C152.504 92.8224 153.992 88.6675 153.992 84.165C153.992 73.1193 145.038 64.165 133.992 64.165C128.543 64.165 123.603 66.3441 119.996 69.8783C116.389 66.3441 111.449 64.165 106 64.165C94.9543 64.165 86 73.1193 86 84.165ZM113.992 84.165L113.994 83.8634C113.836 79.5849 110.317 76.165 106 76.165C101.582 76.165 98 79.7468 98 84.165C98 88.5833 101.582 92.165 106 92.165H113.995L113.992 84.165ZM133.992 76.165C129.675 76.165 126.156 79.5849 125.998 83.8634L126 84.165V92.165H133.992C138.41 92.165 141.992 88.5833 141.992 84.165C141.992 79.7468 138.41 76.165 133.992 76.165Z" fill="white"/>
<path d="M114 124.165H72V152.165C72 161.002 79.1634 168.165 88 168.165H114V124.165Z" fill="white"/>
<path d="M126 168.165V124.165H168V152.165C168 161.002 160.837 168.165 152 168.165H126Z" fill="white"/>
</g>
<defs>
<clipPath id="clip0_1923_176071">
<rect y="0.165039" width="240" height="240" rx="64" fill="white"/>
</clipPath>
</defs>
</svg>
